<?xml version="1.0" encoding="utf-8" standalone="no"?>
<!DOCTYPE svg PUBLIC "-//W3C//DTD SVG 1.1//EN"
  "http://www.w3.org/Graphics/SVG/1.1/DTD/svg11.dtd">
<svg xmlns:xlink="http://www.w3.org/1999/xlink" width="851.25pt" height="344.579687pt" viewBox="0 0 851.25 344.579687" xmlns="http://www.w3.org/2000/svg" version="1.1">
 <metadata>
  <rdf:RDF xmlns:dc="http://purl.org/dc/elements/1.1/" xmlns:cc="http://creativecommons.org/ns#" xmlns:rdf="http://www.w3.org/1999/02/22-rdf-syntax-ns#">
   <cc:Work>
    <dc:type rdf:resource="http://purl.org/dc/dcmitype/StillImage"/>
    <dc:date>2026-02-27T13:38:04.487521</dc:date>
    <dc:format>image/svg+xml</dc:format>
    <dc:creator>
     <cc:Agent>
      <dc:title>Matplotlib v3.9.4, https://matplotlib.org/</dc:title>
     </cc:Agent>
    </dc:creator>
   </cc:Work>
  </rdf:RDF>
 </metadata>
 <defs>
  <style type="text/css">*{stroke-linejoin: round; stroke-linecap: butt}</style>
 </defs>
 <g id="figure_1">
  <g id="patch_1">
   <path d="M 0 344.579687 
L 851.25 344.579687 
L 851.25 0 
L 0 0 
z
" style="fill: #ffffff"/>
  </g>
  <g id="axes_1">
   <g id="patch_2">
    <path d="M 53.31 301.62 
L 418.53 301.62 
L 418.53 22.32 
L 53.31 22.32 
z
" style="fill: #eaeaf2"/>
   </g>
   <g id="matplotlib.axis_1">
    <g id="xtick_1">
     <g id="line2d_1">
      <path d="M 69.910909 301.62 
L 69.910909 22.32 
" clip-path="url(#p16c1bbb2d8)" style="fill: none; stroke: #ffffff; stroke-opacity: 0.3; stroke-linecap: round"/>
     </g>
     <g id="text_1">
      <!-- 0.0 -->
      <g style="fill: #262626" transform="translate(61.16419 319.478281) scale(0.11 -0.11)">
       <defs>
        <path id="DejaVuSans-30" d="M 2034 4250 
Q 1547 4250 1301 3770 
Q 1056 3291 1056 2328 
Q 1056 1369 1301 889 
Q 1547 409 2034 409 
Q 2525 409 2770 889 
Q 3016 1369 3016 2328 
Q 3016 3291 2770 3770 
Q 2525 4250 2034 4250 
z
M 2034 4750 
Q 2819 4750 3233 4129 
Q 3647 3509 3647 2328 
Q 3647 1150 3233 529 
Q 2819 -91 2034 -91 
Q 1250 -91 836 529 
Q 422 1150 422 2328 
Q 422 3509 836 4129 
Q 1250 4750 2034 4750 
z
" transform="scale(0.015625)"/>
        <path id="DejaVuSans-2e" d="M 684 794 
L 1344 794 
L 1344 0 
L 684 0 
L 684 794 
z
" transform="scale(0.015625)"/>
       </defs>
       <use xlink:href="#DejaVuSans-30"/>
       <use xlink:href="#DejaVuSans-2e" x="63.623047"/>
       <use xlink:href="#DejaVuSans-30" x="95.410156"/>
      </g>
     </g>
    </g>
    <g id="xtick_2">
     <g id="line2d_2">
      <path d="M 123.033818 301.62 
L 123.033818 22.32 
" clip-path="url(#p16c1bbb2d8)" style="fill: none; stroke: #ffffff; stroke-opacity: 0.3; stroke-linecap: round"/>
     </g>
     <g id="text_2">
      <!-- 0.2 -->
      <g style="fill: #262626" transform="translate(114.287099 319.478281) scale(0.11 -0.11)">
       <defs>
        <path id="DejaVuSans-32" d="M 1228 531 
L 3431 531 
L 3431 0 
L 469 0 
L 469 531 
Q 828 903 1448 1529 
Q 2069 2156 2228 2338 
Q 2531 2678 2651 2914 
Q 2772 3150 2772 3378 
Q 2772 3750 2511 3984 
Q 2250 4219 1831 4219 
Q 1534 4219 1204 4116 
Q 875 4013 500 3803 
L 500 4441 
Q 881 4594 1212 4672 
Q 1544 4750 1819 4750 
Q 2544 4750 2975 4387 
Q 3406 4025 3406 3419 
Q 3406 3131 3298 2873 
Q 3191 2616 2906 2266 
Q 2828 2175 2409 1742 
Q 1991 1309 1228 531 
z
" transform="scale(0.015625)"/>
       </defs>
       <use xlink:href="#DejaVuSans-30"/>
       <use xlink:href="#DejaVuSans-2e" x="63.623047"/>
       <use xlink:href="#DejaVuSans-32" x="95.410156"/>
      </g>
     </g>
    </g>
    <g id="xtick_3">
     <g id="line2d_3">
      <path d="M 176.156727 301.62 
L 176.156727 22.32 
" clip-path="url(#p16c1bbb2d8)" style="fill: none; stroke: #ffffff; stroke-opacity: 0.3; stroke-linecap: round"/>
     </g>
     <g id="text_3">
      <!-- 0.4 -->
      <g style="fill: #262626" transform="translate(167.410009 319.478281) scale(0.11 -0.11)">
       <defs>
        <path id="DejaVuSans-34" d="M 2419 4116 
L 825 1625 
L 2419 1625 
L 2419 4116 
z
M 2253 4666 
L 3047 4666 
L 3047 1625 
L 3713 1625 
L 3713 1100 
L 3047 1100 
L 3047 0 
L 2419 0 
L 2419 1100 
L 313 1100 
L 313 1709 
L 2253 4666 
z
" transform="scale(0.015625)"/>
       </defs>
       <use xlink:href="#DejaVuSans-30"/>
       <use xlink:href="#DejaVuSans-2e" x="63.623047"/>
       <use xlink:href="#DejaVuSans-34" x="95.410156"/>
      </g>
     </g>
    </g>
    <g id="xtick_4">
     <g id="line2d_4">
      <path d="M 229.279636 301.62 
L 229.279636 22.32 
" clip-path="url(#p16c1bbb2d8)" style="fill: none; stroke: #ffffff; stroke-opacity: 0.3; stroke-linecap: round"/>
     </g>
     <g id="text_4">
      <!-- 0.6 -->
      <g style="fill: #262626" transform="translate(220.532918 319.478281) scale(0.11 -0.11)">
       <defs>
        <path id="DejaVuSans-36" d="M 2113 2584 
Q 1688 2584 1439 2293 
Q 1191 2003 1191 1497 
Q 1191 994 1439 701 
Q 1688 409 2113 409 
Q 2538 409 2786 701 
Q 3034 994 3034 1497 
Q 3034 2003 2786 2293 
Q 2538 2584 2113 2584 
z
M 3366 4563 
L 3366 3988 
Q 3128 4100 2886 4159 
Q 2644 4219 2406 4219 
Q 1781 4219 1451 3797 
Q 1122 3375 1075 2522 
Q 1259 2794 1537 2939 
Q 1816 3084 2150 3084 
Q 2853 3084 3261 2657 
Q 3669 2231 3669 1497 
Q 3669 778 3244 343 
Q 2819 -91 2113 -91 
Q 1303 -91 875 529 
Q 447 1150 447 2328 
Q 447 3434 972 4092 
Q 1497 4750 2381 4750 
Q 2619 4750 2861 4703 
Q 3103 4656 3366 4563 
z
" transform="scale(0.015625)"/>
       </defs>
       <use xlink:href="#DejaVuSans-30"/>
       <use xlink:href="#DejaVuSans-2e" x="63.623047"/>
       <use xlink:href="#DejaVuSans-36" x="95.410156"/>
      </g>
     </g>
    </g>
    <g id="xtick_5">
     <g id="line2d_5">
      <path d="M 282.402545 301.62 
L 282.402545 22.32 
" clip-path="url(#p16c1bbb2d8)" style="fill: none; stroke: #ffffff; stroke-opacity: 0.3; stroke-linecap: round"/>
     </g>
     <g id="text_5">
      <!-- 0.8 -->
      <g style="fill: #262626" transform="translate(273.655827 319.478281) scale(0.11 -0.11)">
       <defs>
        <path id="DejaVuSans-38" d="M 2034 2216 
Q 1584 2216 1326 1975 
Q 1069 1734 1069 1313 
Q 1069 891 1326 650 
Q 1584 409 2034 409 
Q 2484 409 2743 651 
Q 3003 894 3003 1313 
Q 3003 1734 2745 1975 
Q 2488 2216 2034 2216 
z
M 1403 2484 
Q 997 2584 770 2862 
Q 544 3141 544 3541 
Q 544 4100 942 4425 
Q 1341 4750 2034 4750 
Q 2731 4750 3128 4425 
Q 3525 4100 3525 3541 
Q 3525 3141 3298 2862 
Q 3072 2584 2669 2484 
Q 3125 2378 3379 2068 
Q 3634 1759 3634 1313 
Q 3634 634 3220 271 
Q 2806 -91 2034 -91 
Q 1263 -91 848 271 
Q 434 634 434 1313 
Q 434 1759 690 2068 
Q 947 2378 1403 2484 
z
M 1172 3481 
Q 1172 3119 1398 2916 
Q 1625 2713 2034 2713 
Q 2441 2713 2670 2916 
Q 2900 3119 2900 3481 
Q 2900 3844 2670 4047 
Q 2441 4250 2034 4250 
Q 1625 4250 1398 4047 
Q 1172 3844 1172 3481 
z
" transform="scale(0.015625)"/>
       </defs>
       <use xlink:href="#DejaVuSans-30"/>
       <use xlink:href="#DejaVuSans-2e" x="63.623047"/>
       <use xlink:href="#DejaVuSans-38" x="95.410156"/>
      </g>
     </g>
    </g>
    <g id="xtick_6">
     <g id="line2d_6">
      <path d="M 335.525455 301.62 
L 335.525455 22.32 
" clip-path="url(#p16c1bbb2d8)" style="fill: none; stroke: #ffffff; stroke-opacity: 0.3; stroke-linecap: round"/>
     </g>
     <g id="text_6">
      <!-- 1.0 -->
      <g style="fill: #262626" transform="translate(326.778736 319.478281) scale(0.11 -0.11)">
       <defs>
        <path id="DejaVuSans-31" d="M 794 531 
L 1825 531 
L 1825 4091 
L 703 3866 
L 703 4441 
L 1819 4666 
L 2450 4666 
L 2450 531 
L 3481 531 
L 3481 0 
L 794 0 
L 794 531 
z
" transform="scale(0.015625)"/>
       </defs>
       <use xlink:href="#DejaVuSans-31"/>
       <use xlink:href="#DejaVuSans-2e" x="63.623047"/>
       <use xlink:href="#DejaVuSans-30" x="95.410156"/>
      </g>
     </g>
    </g>
    <g id="xtick_7">
     <g id="line2d_7">
      <path d="M 388.648364 301.62 
L 388.648364 22.32 
" clip-path="url(#p16c1bbb2d8)" style="fill: none; stroke: #ffffff; stroke-opacity: 0.3; stroke-linecap: round"/>
     </g>
     <g id="text_7">
      <!-- 1.2 -->
      <g style="fill: #262626" transform="translate(379.901645 319.478281) scale(0.11 -0.11)">
       <use xlink:href="#DejaVuSans-31"/>
       <use xlink:href="#DejaVuSans-2e" x="63.623047"/>
       <use xlink:href="#DejaVuSans-32" x="95.410156"/>
      </g>
     </g>
    </g>
    <g id="text_8">
     <!-- Normalized trajectory progression s -->
     <g style="fill: #262626" transform="translate(128.81625 334.884062) scale(0.12 -0.12)">
      <defs>
       <path id="DejaVuSans-4e" d="M 628 4666 
L 1478 4666 
L 3547 763 
L 3547 4666 
L 4159 4666 
L 4159 0 
L 3309 0 
L 1241 3903 
L 1241 0 
L 628 0 
L 628 4666 
z
" transform="scale(0.015625)"/>
       <path id="DejaVuSans-6f" d="M 1959 3097 
Q 1497 3097 1228 2736 
Q 959 2375 959 1747 
Q 959 1119 1226 758 
Q 1494 397 1959 397 
Q 2419 397 2687 759 
Q 2956 1122 2956 1747 
Q 2956 2369 2687 2733 
Q 2419 3097 1959 3097 
z
M 1959 3584 
Q 2709 3584 3137 3096 
Q 3566 2609 3566 1747 
Q 3566 888 3137 398 
Q 2709 -91 1959 -91 
Q 1206 -91 779 398 
Q 353 888 353 1747 
Q 353 2609 779 3096 
Q 1206 3584 1959 3584 
z
" transform="scale(0.015625)"/>
       <path id="DejaVuSans-72" d="M 2631 2963 
Q 2534 3019 2420 3045 
Q 2306 3072 2169 3072 
Q 1681 3072 1420 2755 
Q 1159 2438 1159 1844 
L 1159 0 
L 581 0 
L 581 3500 
L 1159 3500 
L 1159 2956 
Q 1341 3275 1631 3429 
Q 1922 3584 2338 3584 
Q 2397 3584 2469 3576 
Q 2541 3569 2628 3553 
L 2631 2963 
z
" transform="scale(0.015625)"/>
       <path id="DejaVuSans-6d" d="M 3328 2828 
Q 3544 3216 3844 3400 
Q 4144 3584 4550 3584 
Q 5097 3584 5394 3201 
Q 5691 2819 5691 2113 
L 5691 0 
L 5113 0 
L 5113 2094 
Q 5113 2597 4934 2840 
Q 4756 3084 4391 3084 
Q 3944 3084 3684 2787 
Q 3425 2491 3425 1978 
L 3425 0 
L 2847 0 
L 2847 2094 
Q 2847 2600 2669 2842 
Q 2491 3084 2119 3084 
Q 1678 3084 1418 2786 
Q 1159 2488 1159 1978 
L 1159 0 
L 581 0 
L 581 3500 
L 1159 3500 
L 1159 2956 
Q 1356 3278 1631 3431 
Q 1906 3584 2284 3584 
Q 2666 3584 2933 3390 
Q 3200 3197 3328 2828 
z
" transform="scale(0.015625)"/>
       <path id="DejaVuSans-61" d="M 2194 1759 
Q 1497 1759 1228 1600 
Q 959 1441 959 1056 
Q 959 750 1161 570 
Q 1363 391 1709 391 
Q 2188 391 2477 730 
Q 2766 1069 2766 1631 
L 2766 1759 
L 2194 1759 
z
M 3341 1997 
L 3341 0 
L 2766 0 
L 2766 531 
Q 2569 213 2275 61 
Q 1981 -91 1556 -91 
Q 1019 -91 701 211 
Q 384 513 384 1019 
Q 384 1609 779 1909 
Q 1175 2209 1959 2209 
L 2766 2209 
L 2766 2266 
Q 2766 2663 2505 2880 
Q 2244 3097 1772 3097 
Q 1472 3097 1187 3025 
Q 903 2953 641 2809 
L 641 3341 
Q 956 3463 1253 3523 
Q 1550 3584 1831 3584 
Q 2591 3584 2966 3190 
Q 3341 2797 3341 1997 
z
" transform="scale(0.015625)"/>
       <path id="DejaVuSans-6c" d="M 603 4863 
L 1178 4863 
L 1178 0 
L 603 0 
L 603 4863 
z
" transform="scale(0.015625)"/>
       <path id="DejaVuSans-69" d="M 603 3500 
L 1178 3500 
L 1178 0 
L 603 0 
L 603 3500 
z
M 603 4863 
L 1178 4863 
L 1178 4134 
L 603 4134 
L 603 4863 
z
" transform="scale(0.015625)"/>
       <path id="DejaVuSans-7a" d="M 353 3500 
L 3084 3500 
L 3084 2975 
L 922 459 
L 3084 459 
L 3084 0 
L 275 0 
L 275 525 
L 2438 3041 
L 353 3041 
L 353 3500 
z
" transform="scale(0.015625)"/>
       <path id="DejaVuSans-65" d="M 3597 1894 
L 3597 1613 
L 953 1613 
Q 991 1019 1311 708 
Q 1631 397 2203 397 
Q 2534 397 2845 478 
Q 3156 559 3463 722 
L 3463 178 
Q 3153 47 2828 -22 
Q 2503 -91 2169 -91 
Q 1331 -91 842 396 
Q 353 884 353 1716 
Q 353 2575 817 3079 
Q 1281 3584 2069 3584 
Q 2775 3584 3186 3129 
Q 3597 2675 3597 1894 
z
M 3022 2063 
Q 3016 2534 2758 2815 
Q 2500 3097 2075 3097 
Q 1594 3097 1305 2825 
Q 1016 2553 972 2059 
L 3022 2063 
z
" transform="scale(0.015625)"/>
       <path id="DejaVuSans-64" d="M 2906 2969 
L 2906 4863 
L 3481 4863 
L 3481 0 
L 2906 0 
L 2906 525 
Q 2725 213 2448 61 
Q 2172 -91 1784 -91 
Q 1150 -91 751 415 
Q 353 922 353 1747 
Q 353 2572 751 3078 
Q 1150 3584 1784 3584 
Q 2172 3584 2448 3432 
Q 2725 3281 2906 2969 
z
M 947 1747 
Q 947 1113 1208 752 
Q 1469 391 1925 391 
Q 2381 391 2643 752 
Q 2906 1113 2906 1747 
Q 2906 2381 2643 2742 
Q 2381 3103 1925 3103 
Q 1469 3103 1208 2742 
Q 947 2381 947 1747 
z
" transform="scale(0.015625)"/>
       <path id="DejaVuSans-20" transform="scale(0.015625)"/>
       <path id="DejaVuSans-74" d="M 1172 4494 
L 1172 3500 
L 2356 3500 
L 2356 3053 
L 1172 3053 
L 1172 1153 
Q 1172 725 1289 603 
Q 1406 481 1766 481 
L 2356 481 
L 2356 0 
L 1766 0 
Q 1100 0 847 248 
Q 594 497 594 1153 
L 594 3053 
L 172 3053 
L 172 3500 
L 594 3500 
L 594 4494 
L 1172 4494 
z
" transform="scale(0.015625)"/>
       <path id="DejaVuSans-6a" d="M 603 3500 
L 1178 3500 
L 1178 -63 
Q 1178 -731 923 -1031 
Q 669 -1331 103 -1331 
L -116 -1331 
L -116 -844 
L 38 -844 
Q 366 -844 484 -692 
Q 603 -541 603 -63 
L 603 3500 
z
M 603 4863 
L 1178 4863 
L 1178 4134 
L 603 4134 
L 603 4863 
z
" transform="scale(0.015625)"/>
       <path id="DejaVuSans-63" d="M 3122 3366 
L 3122 2828 
Q 2878 2963 2633 3030 
Q 2388 3097 2138 3097 
Q 1578 3097 1268 2742 
Q 959 2388 959 1747 
Q 959 1106 1268 751 
Q 1578 397 2138 397 
Q 2388 397 2633 464 
Q 2878 531 3122 666 
L 3122 134 
Q 2881 22 2623 -34 
Q 2366 -91 2075 -91 
Q 1284 -91 818 406 
Q 353 903 353 1747 
Q 353 2603 823 3093 
Q 1294 3584 2113 3584 
Q 2378 3584 2631 3529 
Q 2884 3475 3122 3366 
z
" transform="scale(0.015625)"/>
       <path id="DejaVuSans-79" d="M 2059 -325 
Q 1816 -950 1584 -1140 
Q 1353 -1331 966 -1331 
L 506 -1331 
L 506 -850 
L 844 -850 
Q 1081 -850 1212 -737 
Q 1344 -625 1503 -206 
L 1606 56 
L 191 3500 
L 800 3500 
L 1894 763 
L 2988 3500 
L 3597 3500 
L 2059 -325 
z
" transform="scale(0.015625)"/>
       <path id="DejaVuSans-70" d="M 1159 525 
L 1159 -1331 
L 581 -1331 
L 581 3500 
L 1159 3500 
L 1159 2969 
Q 1341 3281 1617 3432 
Q 1894 3584 2278 3584 
Q 2916 3584 3314 3078 
Q 3713 2572 3713 1747 
Q 3713 922 3314 415 
Q 2916 -91 2278 -91 
Q 1894 -91 1617 61 
Q 1341 213 1159 525 
z
M 3116 1747 
Q 3116 2381 2855 2742 
Q 2594 3103 2138 3103 
Q 1681 3103 1420 2742 
Q 1159 2381 1159 1747 
Q 1159 1113 1420 752 
Q 1681 391 2138 391 
Q 2594 391 2855 752 
Q 3116 1113 3116 1747 
z
" transform="scale(0.015625)"/>
       <path id="DejaVuSans-67" d="M 2906 1791 
Q 2906 2416 2648 2759 
Q 2391 3103 1925 3103 
Q 1463 3103 1205 2759 
Q 947 2416 947 1791 
Q 947 1169 1205 825 
Q 1463 481 1925 481 
Q 2391 481 2648 825 
Q 2906 1169 2906 1791 
z
M 3481 434 
Q 3481 -459 3084 -895 
Q 2688 -1331 1869 -1331 
Q 1566 -1331 1297 -1286 
Q 1028 -1241 775 -1147 
L 775 -588 
Q 1028 -725 1275 -790 
Q 1522 -856 1778 -856 
Q 2344 -856 2625 -561 
Q 2906 -266 2906 331 
L 2906 616 
Q 2728 306 2450 153 
Q 2172 0 1784 0 
Q 1141 0 747 490 
Q 353 981 353 1791 
Q 353 2603 747 3093 
Q 1141 3584 1784 3584 
Q 2172 3584 2450 3431 
Q 2728 3278 2906 2969 
L 2906 3500 
L 3481 3500 
L 3481 434 
z
" transform="scale(0.015625)"/>
       <path id="DejaVuSans-73" d="M 2834 3397 
L 2834 2853 
Q 2591 2978 2328 3040 
Q 2066 3103 1784 3103 
Q 1356 3103 1142 2972 
Q 928 2841 928 2578 
Q 928 2378 1081 2264 
Q 1234 2150 1697 2047 
L 1894 2003 
Q 2506 1872 2764 1633 
Q 3022 1394 3022 966 
Q 3022 478 2636 193 
Q 2250 -91 1575 -91 
Q 1294 -91 989 -36 
Q 684 19 347 128 
L 347 722 
Q 666 556 975 473 
Q 1284 391 1588 391 
Q 1994 391 2212 530 
Q 2431 669 2431 922 
Q 2431 1156 2273 1281 
Q 2116 1406 1581 1522 
L 1381 1569 
Q 847 1681 609 1914 
Q 372 2147 372 2553 
Q 372 3047 722 3315 
Q 1072 3584 1716 3584 
Q 2034 3584 2315 3537 
Q 2597 3491 2834 3397 
z
" transform="scale(0.015625)"/>
       <path id="DejaVuSans-6e" d="M 3513 2113 
L 3513 0 
L 2938 0 
L 2938 2094 
Q 2938 2591 2744 2837 
Q 2550 3084 2163 3084 
Q 1697 3084 1428 2787 
Q 1159 2491 1159 1978 
L 1159 0 
L 581 0 
L 581 3500 
L 1159 3500 
L 1159 2956 
Q 1366 3272 1645 3428 
Q 1925 3584 2291 3584 
Q 2894 3584 3203 3211 
Q 3513 2838 3513 2113 
z
" transform="scale(0.015625)"/>
      </defs>
      <use xlink:href="#DejaVuSans-4e"/>
      <use xlink:href="#DejaVuSans-6f" x="74.804688"/>
      <use xlink:href="#DejaVuSans-72" x="135.986328"/>
      <use xlink:href="#DejaVuSans-6d" x="175.349609"/>
      <use xlink:href="#DejaVuSans-61" x="272.761719"/>
      <use xlink:href="#DejaVuSans-6c" x="334.041016"/>
      <use xlink:href="#DejaVuSans-69" x="361.824219"/>
      <use xlink:href="#DejaVuSans-7a" x="389.607422"/>
      <use xlink:href="#DejaVuSans-65" x="442.097656"/>
      <use xlink:href="#DejaVuSans-64" x="503.621094"/>
      <use xlink:href="#DejaVuSans-20" x="567.097656"/>
      <use xlink:href="#DejaVuSans-74" x="598.884766"/>
      <use xlink:href="#DejaVuSans-72" x="638.09375"/>
      <use xlink:href="#DejaVuSans-61" x="679.207031"/>
      <use xlink:href="#DejaVuSans-6a" x="740.486328"/>
      <use xlink:href="#DejaVuSans-65" x="768.269531"/>
      <use xlink:href="#DejaVuSans-63" x="829.792969"/>
      <use xlink:href="#DejaVuSans-74" x="884.773438"/>
      <use xlink:href="#DejaVuSans-6f" x="923.982422"/>
      <use xlink:href="#DejaVuSans-72" x="985.164062"/>
      <use xlink:href="#DejaVuSans-79" x="1026.277344"/>
      <use xlink:href="#DejaVuSans-20" x="1085.457031"/>
      <use xlink:href="#DejaVuSans-70" x="1117.244141"/>
      <use xlink:href="#DejaVuSans-72" x="1180.720703"/>
      <use xlink:href="#DejaVuSans-6f" x="1219.583984"/>
      <use xlink:href="#DejaVuSans-67" x="1280.765625"/>
      <use xlink:href="#DejaVuSans-72" x="1344.242188"/>
      <use xlink:href="#DejaVuSans-65" x="1383.105469"/>
      <use xlink:href="#DejaVuSans-73" x="1444.628906"/>
      <use xlink:href="#DejaVuSans-73" x="1496.728516"/>
      <use xlink:href="#DejaVuSans-69" x="1548.828125"/>
      <use xlink:href="#DejaVuSans-6f" x="1576.611328"/>
      <use xlink:href="#DejaVuSans-6e" x="1637.792969"/>
      <use xlink:href="#DejaVuSans-20" x="1701.171875"/>
      <use xlink:href="#DejaVuSans-73" x="1732.958984"/>
     </g>
    </g>
   </g>
   <g id="matplotlib.axis_2">
    <g id="ytick_1">
     <g id="line2d_8">
      <path d="M 53.31 289.694113 
L 418.53 289.694113 
" clip-path="url(#p16c1bbb2d8)" style="fill: none; stroke: #ffffff; stroke-opacity: 0.3; stroke-linecap: round"/>
     </g>
     <g id="text_9">
      <!-- 0 -->
      <g style="fill: #262626" transform="translate(36.81125 293.873254) scale(0.11 -0.11)">
       <use xlink:href="#DejaVuSans-30"/>
      </g>
     </g>
    </g>
    <g id="ytick_2">
     <g id="line2d_9">
      <path d="M 53.31 251.466724 
L 418.53 251.466724 
" clip-path="url(#p16c1bbb2d8)" style="fill: none; stroke: #ffffff; stroke-opacity: 0.3; stroke-linecap: round"/>
     </g>
     <g id="text_10">
      <!-- 100 -->
      <g style="fill: #262626" transform="translate(22.81375 255.645865) scale(0.11 -0.11)">
       <use xlink:href="#DejaVuSans-31"/>
       <use xlink:href="#DejaVuSans-30" x="63.623047"/>
       <use xlink:href="#DejaVuSans-30" x="127.246094"/>
      </g>
     </g>
    </g>
    <g id="ytick_3">
     <g id="line2d_10">
      <path d="M 53.31 213.239336 
L 418.53 213.239336 
" clip-path="url(#p16c1bbb2d8)" style="fill: none; stroke: #ffffff; stroke-opacity: 0.3; stroke-linecap: round"/>
     </g>
     <g id="text_11">
      <!-- 200 -->
      <g style="fill: #262626" transform="translate(22.81375 217.418476) scale(0.11 -0.11)">
       <use xlink:href="#DejaVuSans-32"/>
       <use xlink:href="#DejaVuSans-30" x="63.623047"/>
       <use xlink:href="#DejaVuSans-30" x="127.246094"/>
      </g>
     </g>
    </g>
    <g id="ytick_4">
     <g id="line2d_11">
      <path d="M 53.31 175.011947 
L 418.53 175.011947 
" clip-path="url(#p16c1bbb2d8)" style="fill: none; stroke: #ffffff; stroke-opacity: 0.3; stroke-linecap: round"/>
     </g>
     <g id="text_12">
      <!-- 300 -->
      <g style="fill: #262626" transform="translate(22.81375 179.191088) scale(0.11 -0.11)">
       <defs>
        <path id="DejaVuSans-33" d="M 2597 2516 
Q 3050 2419 3304 2112 
Q 3559 1806 3559 1356 
Q 3559 666 3084 287 
Q 2609 -91 1734 -91 
Q 1441 -91 1130 -33 
Q 819 25 488 141 
L 488 750 
Q 750 597 1062 519 
Q 1375 441 1716 441 
Q 2309 441 2620 675 
Q 2931 909 2931 1356 
Q 2931 1769 2642 2001 
Q 2353 2234 1838 2234 
L 1294 2234 
L 1294 2753 
L 1863 2753 
Q 2328 2753 2575 2939 
Q 2822 3125 2822 3475 
Q 2822 3834 2567 4026 
Q 2313 4219 1838 4219 
Q 1578 4219 1281 4162 
Q 984 4106 628 3988 
L 628 4550 
Q 988 4650 1302 4700 
Q 1616 4750 1894 4750 
Q 2613 4750 3031 4423 
Q 3450 4097 3450 3541 
Q 3450 3153 3228 2886 
Q 3006 2619 2597 2516 
z
" transform="scale(0.015625)"/>
       </defs>
       <use xlink:href="#DejaVuSans-33"/>
       <use xlink:href="#DejaVuSans-30" x="63.623047"/>
       <use xlink:href="#DejaVuSans-30" x="127.246094"/>
      </g>
     </g>
    </g>
    <g id="ytick_5">
     <g id="line2d_12">
      <path d="M 53.31 136.784558 
L 418.53 136.784558 
" clip-path="url(#p16c1bbb2d8)" style="fill: none; stroke: #ffffff; stroke-opacity: 0.3; stroke-linecap: round"/>
     </g>
     <g id="text_13">
      <!-- 400 -->
      <g style="fill: #262626" transform="translate(22.81375 140.963699) scale(0.11 -0.11)">
       <use xlink:href="#DejaVuSans-34"/>
       <use xlink:href="#DejaVuSans-30" x="63.623047"/>
       <use xlink:href="#DejaVuSans-30" x="127.246094"/>
      </g>
     </g>
    </g>
    <g id="ytick_6">
     <g id="line2d_13">
      <path d="M 53.31 98.55717 
L 418.53 98.55717 
" clip-path="url(#p16c1bbb2d8)" style="fill: none; stroke: #ffffff; stroke-opacity: 0.3; stroke-linecap: round"/>
     </g>
     <g id="text_14">
      <!-- 500 -->
      <g style="fill: #262626" transform="translate(22.81375 102.73631) scale(0.11 -0.11)">
       <defs>
        <path id="DejaVuSans-35" d="M 691 4666 
L 3169 4666 
L 3169 4134 
L 1269 4134 
L 1269 2991 
Q 1406 3038 1543 3061 
Q 1681 3084 1819 3084 
Q 2600 3084 3056 2656 
Q 3513 2228 3513 1497 
Q 3513 744 3044 326 
Q 2575 -91 1722 -91 
Q 1428 -91 1123 -41 
Q 819 9 494 109 
L 494 744 
Q 775 591 1075 516 
Q 1375 441 1709 441 
Q 2250 441 2565 725 
Q 2881 1009 2881 1497 
Q 2881 1984 2565 2268 
Q 2250 2553 1709 2553 
Q 1456 2553 1204 2497 
Q 953 2441 691 2322 
L 691 4666 
z
" transform="scale(0.015625)"/>
       </defs>
       <use xlink:href="#DejaVuSans-35"/>
       <use xlink:href="#DejaVuSans-30" x="63.623047"/>
       <use xlink:href="#DejaVuSans-30" x="127.246094"/>
      </g>
     </g>
    </g>
    <g id="ytick_7">
     <g id="line2d_14">
      <path d="M 53.31 60.329781 
L 418.53 60.329781 
" clip-path="url(#p16c1bbb2d8)" style="fill: none; stroke: #ffffff; stroke-opacity: 0.3; stroke-linecap: round"/>
     </g>
     <g id="text_15">
      <!-- 600 -->
      <g style="fill: #262626" transform="translate(22.81375 64.508922) scale(0.11 -0.11)">
       <use xlink:href="#DejaVuSans-36"/>
       <use xlink:href="#DejaVuSans-30" x="63.623047"/>
       <use xlink:href="#DejaVuSans-30" x="127.246094"/>
      </g>
     </g>
    </g>
    <g id="text_16">
     <!-- Gp[x] in [N/m] -->
     <g style="fill: #262626" transform="translate(16.318125 204.980625) rotate(-90) scale(0.12 -0.12)">
      <defs>
       <path id="DejaVuSans-47" d="M 3809 666 
L 3809 1919 
L 2778 1919 
L 2778 2438 
L 4434 2438 
L 4434 434 
Q 4069 175 3628 42 
Q 3188 -91 2688 -91 
Q 1594 -91 976 548 
Q 359 1188 359 2328 
Q 359 3472 976 4111 
Q 1594 4750 2688 4750 
Q 3144 4750 3555 4637 
Q 3966 4525 4313 4306 
L 4313 3634 
Q 3963 3931 3569 4081 
Q 3175 4231 2741 4231 
Q 1884 4231 1454 3753 
Q 1025 3275 1025 2328 
Q 1025 1384 1454 906 
Q 1884 428 2741 428 
Q 3075 428 3337 486 
Q 3600 544 3809 666 
z
" transform="scale(0.015625)"/>
       <path id="DejaVuSans-5b" d="M 550 4863 
L 1875 4863 
L 1875 4416 
L 1125 4416 
L 1125 -397 
L 1875 -397 
L 1875 -844 
L 550 -844 
L 550 4863 
z
" transform="scale(0.015625)"/>
       <path id="DejaVuSans-78" d="M 3513 3500 
L 2247 1797 
L 3578 0 
L 2900 0 
L 1881 1375 
L 863 0 
L 184 0 
L 1544 1831 
L 300 3500 
L 978 3500 
L 1906 2253 
L 2834 3500 
L 3513 3500 
z
" transform="scale(0.015625)"/>
       <path id="DejaVuSans-5d" d="M 1947 4863 
L 1947 -844 
L 622 -844 
L 622 -397 
L 1369 -397 
L 1369 4416 
L 622 4416 
L 622 4863 
L 1947 4863 
z
" transform="scale(0.015625)"/>
       <path id="DejaVuSans-2f" d="M 1625 4666 
L 2156 4666 
L 531 -594 
L 0 -594 
L 1625 4666 
z
" transform="scale(0.015625)"/>
      </defs>
      <use xlink:href="#DejaVuSans-47"/>
      <use xlink:href="#DejaVuSans-70" x="77.490234"/>
      <use xlink:href="#DejaVuSans-5b" x="140.966797"/>
      <use xlink:href="#DejaVuSans-78" x="179.980469"/>
      <use xlink:href="#DejaVuSans-5d" x="239.160156"/>
      <use xlink:href="#DejaVuSans-20" x="278.173828"/>
      <use xlink:href="#DejaVuSans-69" x="309.960938"/>
      <use xlink:href="#DejaVuSans-6e" x="337.744141"/>
      <use xlink:href="#DejaVuSans-20" x="401.123047"/>
      <use xlink:href="#DejaVuSans-5b" x="432.910156"/>
      <use xlink:href="#DejaVuSans-4e" x="471.923828"/>
      <use xlink:href="#DejaVuSans-2f" x="546.728516"/>
      <use xlink:href="#DejaVuSans-6d" x="580.419922"/>
      <use xlink:href="#DejaVuSans-5d" x="677.832031"/>
     </g>
    </g>
   </g>
   <g id="line2d_15">
    <path d="M 69.910909 37.530521 
L 70.576276 36.021623 
L 71.241643 35.803696 
L 73.903112 35.662888 
L 110.498302 35.275788 
L 123.805644 35.395444 
L 129.128581 35.643484 
L 132.455416 35.979893 
L 135.116885 36.427225 
L 137.778353 37.107656 
L 139.774454 37.817721 
L 141.770556 38.732813 
L 143.766657 39.874466 
L 145.762758 41.250591 
L 147.75886 42.85345 
L 150.420328 45.305444 
L 153.081796 48.054566 
L 156.408632 51.821444 
L 159.735467 55.916613 
L 163.062303 60.341379 
L 171.046708 71.191062 
L 177.035012 78.636074 
L 179.69648 82.488489 
L 185.019417 90.494845 
L 187.015518 92.976167 
L 188.346253 94.286249 
L 189.676987 95.230984 
L 191.007721 95.75024 
L 192.338455 95.829904 
L 193.669189 95.524602 
L 195.665291 94.643967 
L 197.661392 93.807313 
L 198.992126 93.49696 
L 202.318962 93.101423 
L 203.649696 92.535589 
L 204.98043 91.468875 
L 206.311164 89.920594 
L 210.303367 84.713706 
L 211.634101 83.512343 
L 213.630202 82.1721 
L 215.626304 80.783131 
L 216.957038 79.463696 
L 218.287772 77.619994 
L 219.618506 75.168807 
L 220.94924 72.172321 
L 224.276076 64.085315 
L 225.60681 61.463778 
L 226.937544 59.422231 
L 228.268278 57.8751 
L 230.26438 56.105347 
L 232.925848 53.916135 
L 234.921949 51.923541 
L 236.918051 49.506965 
L 240.910253 44.347641 
L 242.906355 42.250946 
L 244.902456 40.590528 
L 246.898557 39.255995 
L 248.894658 38.177763 
L 250.89076 37.346142 
L 252.886861 36.752136 
L 254.882962 36.359555 
L 257.544431 36.058838 
L 261.536633 35.868849 
L 268.855671 35.805058 
L 278.170811 35.678847 
L 291.478153 35.466519 
L 316.762102 35.441699 
L 334.061647 35.540719 
L 334.727014 35.570946 
L 335.392381 36.344059 
L 336.057748 40.560214 
L 336.723115 53.020929 
L 337.388482 77.61636 
L 340.049951 212.151951 
L 340.715318 232.039746 
L 341.380685 246.292299 
L 342.046052 256.459242 
L 342.711419 263.768504 
L 343.376786 269.096172 
L 344.042153 273.0428 
L 344.70752 276.015596 
L 345.372888 278.291541 
L 346.038255 280.060956 
L 346.703622 281.456372 
L 348.034356 283.473349 
L 349.36509 284.820432 
L 350.695824 285.756211 
L 352.026559 286.428157 
L 354.02266 287.124566 
L 356.018761 287.589305 
L 358.68023 287.998306 
L 362.672432 288.363638 
L 368.660736 288.644553 
L 377.975875 288.826627 
L 396.606154 288.918313 
L 401.929091 288.924545 
L 401.929091 288.924545 
" clip-path="url(#p16c1bbb2d8)" style="fill: none; stroke: #0000ff; stroke-width: 2; stroke-linecap: round"/>
   </g>
   <g id="line2d_16">
    <path d="M 69.910909 36.078466 
L 70.576276 35.461071 
L 71.241643 35.256687 
L 73.903112 35.184513 
L 81.22215 35.152119 
L 124.471011 35.253054 
L 130.459315 35.488676 
L 134.451518 35.840681 
L 137.778353 36.329194 
L 141.105189 37.045025 
L 144.432024 38.005563 
L 147.75886 39.191872 
L 151.751062 40.861021 
L 155.743265 42.760311 
L 159.735467 44.899431 
L 163.72767 47.29987 
L 169.050607 50.817743 
L 173.708176 54.122006 
L 176.369645 56.274365 
L 178.365746 58.122736 
L 180.361847 60.208986 
L 183.023316 63.333081 
L 187.680885 68.956149 
L 189.01162 70.266907 
L 190.342354 71.305067 
L 191.673088 72.024308 
L 193.003822 72.413783 
L 194.334556 72.498371 
L 195.665291 72.33067 
L 197.661392 71.751817 
L 200.32286 70.674076 
L 204.315063 68.823517 
L 210.303367 65.744462 
L 212.964835 64.229513 
L 214.960936 62.80153 
L 216.291671 61.611814 
L 217.622405 60.198842 
L 219.618506 57.704405 
L 223.610709 52.416188 
L 224.941443 50.952318 
L 226.272177 49.736332 
L 228.268278 48.315198 
L 234.256582 44.6381 
L 237.583418 42.027961 
L 240.244886 40.014034 
L 242.240987 38.773633 
L 244.237089 37.806473 
L 246.23319 37.0758 
L 248.894658 36.389001 
L 251.556127 35.95552 
L 254.882962 35.658852 
L 260.205899 35.46736 
L 278.170811 35.250628 
L 294.139621 35.198841 
L 334.061647 35.29589 
L 334.727014 35.48396 
L 335.392381 36.07239 
L 336.057748 37.473607 
L 336.723115 40.25669 
L 337.388482 45.082301 
L 338.05385 52.574996 
L 338.719217 63.147695 
L 339.384584 76.833271 
L 340.715318 111.429533 
L 342.711419 167.15067 
L 344.042153 197.910802 
L 345.372888 221.383464 
L 346.703622 238.486836 
L 348.034356 250.754573 
L 349.36509 259.566678 
L 350.695824 265.962332 
L 352.026559 270.671664 
L 353.357293 274.194924 
L 354.688027 276.873377 
L 356.018761 278.941236 
L 357.349495 280.561036 
L 358.68023 281.847091 
L 360.010964 282.880961 
L 362.007065 284.08361 
L 364.003166 284.98581 
L 366.664635 285.870781 
L 369.326103 286.510225 
L 372.652939 287.08414 
L 377.310508 287.624508 
L 383.298812 288.058724 
L 391.283217 288.397088 
L 401.929091 288.639606 
L 401.929091 288.639606 
" clip-path="url(#p16c1bbb2d8)" style="fill: none; stroke: #ffa500; stroke-width: 2; stroke-linecap: round"/>
   </g>
   <g id="line2d_17">
    <path d="M 69.910909 36.247263 
L 70.576276 35.731464 
L 71.241643 35.454725 
L 72.572377 35.259827 
L 77.229947 35.180825 
L 110.498302 35.016678 
L 129.128581 35.130032 
L 135.116885 35.359821 
L 139.774454 35.760377 
L 143.766657 36.354637 
L 147.093492 37.074565 
L 150.420328 38.021937 
L 153.747163 39.210804 
L 157.073999 40.658091 
L 160.400834 42.383711 
L 163.72767 44.394681 
L 167.054505 46.664136 
L 171.712075 50.147929 
L 183.688683 59.34011 
L 186.350151 61.028006 
L 188.346253 62.038347 
L 190.342354 62.778181 
L 192.338455 63.229961 
L 194.334556 63.401122 
L 196.330658 63.318334 
L 198.326759 63.020717 
L 200.988227 62.362523 
L 203.649696 61.476532 
L 206.311164 60.397799 
L 208.972633 59.116383 
L 211.634101 57.58858 
L 214.295569 55.766001 
L 216.957038 53.654153 
L 223.610709 48.133858 
L 226.272177 46.314236 
L 231.595114 43.10631 
L 238.248785 39.149072 
L 240.244886 38.214783 
L 242.240987 37.478238 
L 244.902456 36.776117 
L 247.563924 36.312536 
L 251.556127 35.885996 
L 256.879064 35.583661 
L 267.524937 35.280675 
L 278.836178 35.172305 
L 334.061647 35.09649 
L 334.727014 35.21859 
L 335.392381 35.494353 
L 336.057748 36.031595 
L 336.723115 36.971929 
L 337.388482 38.487108 
L 338.05385 40.770259 
L 338.719217 44.02145 
L 339.384584 48.427603 
L 340.049951 54.138445 
L 340.715318 61.242059 
L 342.046052 79.559929 
L 343.376786 102.346942 
L 347.368989 175.537266 
L 348.699723 195.591716 
L 350.030457 212.376243 
L 351.361191 226.0903 
L 352.691926 237.148362 
L 354.02266 246.014717 
L 355.353394 253.120084 
L 356.684128 258.830224 
L 358.014862 263.441565 
L 359.345597 267.188357 
L 360.676331 270.253348 
L 362.007065 272.778335 
L 363.337799 274.873253 
L 364.668533 276.623519 
L 365.999268 278.095765 
L 367.995369 279.894043 
L 369.99147 281.314171 
L 371.987572 282.450133 
L 373.983673 283.369589 
L 376.645141 284.34219 
L 379.971977 285.262343 
L 383.298812 285.951689 
L 387.291015 286.569521 
L 392.613952 287.156498 
L 399.267623 287.651286 
L 401.929091 287.799631 
L 401.929091 287.799631 
" clip-path="url(#p16c1bbb2d8)" style="fill: none; stroke: #008000; stroke-width: 2; stroke-linecap: round"/>
   </g>
   <g id="patch_3">
    <path d="M 53.31 301.62 
L 53.31 22.32 
" style="fill: none; stroke: #ffffff; stroke-width: 1.25; stroke-linejoin: miter; stroke-linecap: square"/>
   </g>
   <g id="patch_4">
    <path d="M 418.53 301.62 
L 418.53 22.32 
" style="fill: none; stroke: #ffffff; stroke-width: 1.25; stroke-linejoin: miter; stroke-linecap: square"/>
   </g>
   <g id="patch_5">
    <path d="M 53.31 301.62 
L 418.53 301.62 
" style="fill: none; stroke: #ffffff; stroke-width: 1.25; stroke-linejoin: miter; stroke-linecap: square"/>
   </g>
   <g id="patch_6">
    <path d="M 53.31 22.32 
L 418.53 22.32 
" style="fill: none; stroke: #ffffff; stroke-width: 1.25; stroke-linejoin: miter; stroke-linecap: square"/>
   </g>
   <g id="text_17">
    <!-- Stiffness ($G_P$) using combined uncertainty -->
    <g style="fill: #262626" transform="translate(110.16 16.32) scale(0.12 -0.12)">
     <defs>
      <path id="DejaVuSans-53" d="M 3425 4513 
L 3425 3897 
Q 3066 4069 2747 4153 
Q 2428 4238 2131 4238 
Q 1616 4238 1336 4038 
Q 1056 3838 1056 3469 
Q 1056 3159 1242 3001 
Q 1428 2844 1947 2747 
L 2328 2669 
Q 3034 2534 3370 2195 
Q 3706 1856 3706 1288 
Q 3706 609 3251 259 
Q 2797 -91 1919 -91 
Q 1588 -91 1214 -16 
Q 841 59 441 206 
L 441 856 
Q 825 641 1194 531 
Q 1563 422 1919 422 
Q 2459 422 2753 634 
Q 3047 847 3047 1241 
Q 3047 1584 2836 1778 
Q 2625 1972 2144 2069 
L 1759 2144 
Q 1053 2284 737 2584 
Q 422 2884 422 3419 
Q 422 4038 858 4394 
Q 1294 4750 2059 4750 
Q 2388 4750 2728 4690 
Q 3069 4631 3425 4513 
z
" transform="scale(0.015625)"/>
      <path id="DejaVuSans-66" d="M 2375 4863 
L 2375 4384 
L 1825 4384 
Q 1516 4384 1395 4259 
Q 1275 4134 1275 3809 
L 1275 3500 
L 2222 3500 
L 2222 3053 
L 1275 3053 
L 1275 0 
L 697 0 
L 697 3053 
L 147 3053 
L 147 3500 
L 697 3500 
L 697 3744 
Q 697 4328 969 4595 
Q 1241 4863 1831 4863 
L 2375 4863 
z
" transform="scale(0.015625)"/>
      <path id="DejaVuSans-28" d="M 1984 4856 
Q 1566 4138 1362 3434 
Q 1159 2731 1159 2009 
Q 1159 1288 1364 580 
Q 1569 -128 1984 -844 
L 1484 -844 
Q 1016 -109 783 600 
Q 550 1309 550 2009 
Q 550 2706 781 3412 
Q 1013 4119 1484 4856 
L 1984 4856 
z
" transform="scale(0.015625)"/>
      <path id="DejaVuSans-Oblique-47" d="M 3494 697 
L 3738 1919 
L 2700 1919 
L 2797 2438 
L 4453 2438 
L 4050 384 
Q 3634 156 3143 32 
Q 2653 -91 2156 -91 
Q 1278 -91 783 396 
Q 288 884 288 1753 
Q 288 2475 589 3126 
Q 891 3778 1422 4213 
Q 1756 4484 2153 4617 
Q 2550 4750 3034 4750 
Q 3472 4750 3873 4639 
Q 4275 4528 4641 4306 
L 4513 3634 
Q 4231 3928 3853 4083 
Q 3475 4238 3047 4238 
Q 2550 4238 2172 4048 
Q 1794 3859 1497 3463 
Q 1244 3125 1098 2667 
Q 953 2209 953 1734 
Q 953 1081 1287 751 
Q 1622 422 2284 422 
Q 2616 422 2925 492 
Q 3234 563 3494 697 
z
" transform="scale(0.015625)"/>
      <path id="DejaVuSans-Oblique-50" d="M 1081 4666 
L 2541 4666 
Q 3178 4666 3512 4369 
Q 3847 4072 3847 3500 
Q 3847 2731 3353 2303 
Q 2859 1875 1966 1875 
L 1172 1875 
L 806 0 
L 172 0 
L 1081 4666 
z
M 1613 4147 
L 1275 2394 
L 2069 2394 
Q 2606 2394 2893 2669 
Q 3181 2944 3181 3456 
Q 3181 3784 2986 3965 
Q 2791 4147 2438 4147 
L 1613 4147 
z
" transform="scale(0.015625)"/>
      <path id="DejaVuSans-29" d="M 513 4856 
L 1013 4856 
Q 1481 4119 1714 3412 
Q 1947 2706 1947 2009 
Q 1947 1309 1714 600 
Q 1481 -109 1013 -844 
L 513 -844 
Q 928 -128 1133 580 
Q 1338 1288 1338 2009 
Q 1338 2731 1133 3434 
Q 928 4138 513 4856 
z
" transform="scale(0.015625)"/>
      <path id="DejaVuSans-75" d="M 544 1381 
L 544 3500 
L 1119 3500 
L 1119 1403 
Q 1119 906 1312 657 
Q 1506 409 1894 409 
Q 2359 409 2629 706 
Q 2900 1003 2900 1516 
L 2900 3500 
L 3475 3500 
L 3475 0 
L 2900 0 
L 2900 538 
Q 2691 219 2414 64 
Q 2138 -91 1772 -91 
Q 1169 -91 856 284 
Q 544 659 544 1381 
z
M 1991 3584 
L 1991 3584 
z
" transform="scale(0.015625)"/>
      <path id="DejaVuSans-62" d="M 3116 1747 
Q 3116 2381 2855 2742 
Q 2594 3103 2138 3103 
Q 1681 3103 1420 2742 
Q 1159 2381 1159 1747 
Q 1159 1113 1420 752 
Q 1681 391 2138 391 
Q 2594 391 2855 752 
Q 3116 1113 3116 1747 
z
M 1159 2969 
Q 1341 3281 1617 3432 
Q 1894 3584 2278 3584 
Q 2916 3584 3314 3078 
Q 3713 2572 3713 1747 
Q 3713 922 3314 415 
Q 2916 -91 2278 -91 
Q 1894 -91 1617 61 
Q 1341 213 1159 525 
L 1159 0 
L 581 0 
L 581 4863 
L 1159 4863 
L 1159 2969 
z
" transform="scale(0.015625)"/>
     </defs>
     <use xlink:href="#DejaVuSans-53" transform="translate(0 0.015625)"/>
     <use xlink:href="#DejaVuSans-74" transform="translate(63.476562 0.015625)"/>
     <use xlink:href="#DejaVuSans-69" transform="translate(102.685547 0.015625)"/>
     <use xlink:href="#DejaVuSans-66" transform="translate(130.46875 0.015625)"/>
     <use xlink:href="#DejaVuSans-66" transform="translate(165.673828 0.015625)"/>
     <use xlink:href="#DejaVuSans-6e" transform="translate(200.878906 0.015625)"/>
     <use xlink:href="#DejaVuSans-65" transform="translate(264.257812 0.015625)"/>
     <use xlink:href="#DejaVuSans-73" transform="translate(325.78125 0.015625)"/>
     <use xlink:href="#DejaVuSans-73" transform="translate(377.880859 0.015625)"/>
     <use xlink:href="#DejaVuSans-20" transform="translate(429.980469 0.015625)"/>
     <use xlink:href="#DejaVuSans-28" transform="translate(461.767578 0.015625)"/>
     <use xlink:href="#DejaVuSans-Oblique-47" transform="translate(500.78125 0.015625)"/>
     <use xlink:href="#DejaVuSans-Oblique-50" transform="translate(578.271484 -16.390625) scale(0.7)"/>
     <use xlink:href="#DejaVuSans-29" transform="translate(623.217773 0.015625)"/>
     <use xlink:href="#DejaVuSans-20" transform="translate(662.231445 0.015625)"/>
     <use xlink:href="#DejaVuSans-75" transform="translate(694.018555 0.015625)"/>
     <use xlink:href="#DejaVuSans-73" transform="translate(757.397461 0.015625)"/>
     <use xlink:href="#DejaVuSans-69" transform="translate(809.49707 0.015625)"/>
     <use xlink:href="#DejaVuSans-6e" transform="translate(837.280273 0.015625)"/>
     <use xlink:href="#DejaVuSans-67" transform="translate(900.65918 0.015625)"/>
     <use xlink:href="#DejaVuSans-20" transform="translate(964.135742 0.015625)"/>
     <use xlink:href="#DejaVuSans-63" transform="translate(995.922852 0.015625)"/>
     <use xlink:href="#DejaVuSans-6f" transform="translate(1050.90332 0.015625)"/>
     <use xlink:href="#DejaVuSans-6d" transform="translate(1112.084961 0.015625)"/>
     <use xlink:href="#DejaVuSans-62" transform="translate(1209.49707 0.015625)"/>
     <use xlink:href="#DejaVuSans-69" transform="translate(1272.973633 0.015625)"/>
     <use xlink:href="#DejaVuSans-6e" transform="translate(1300.756836 0.015625)"/>
     <use xlink:href="#DejaVuSans-65" transform="translate(1364.135742 0.015625)"/>
     <use xlink:href="#DejaVuSans-64" transform="translate(1425.65918 0.015625)"/>
     <use xlink:href="#DejaVuSans-20" transform="translate(1489.135742 0.015625)"/>
     <use xlink:href="#DejaVuSans-75" transform="translate(1520.922852 0.015625)"/>
     <use xlink:href="#DejaVuSans-6e" transform="translate(1584.301758 0.015625)"/>
     <use xlink:href="#DejaVuSans-63" transform="translate(1647.680664 0.015625)"/>
     <use xlink:href="#DejaVuSans-65" transform="translate(1702.661133 0.015625)"/>
     <use xlink:href="#DejaVuSans-72" transform="translate(1764.18457 0.015625)"/>
     <use xlink:href="#DejaVuSans-74" transform="translate(1805.297852 0.015625)"/>
     <use xlink:href="#DejaVuSans-61" transform="translate(1844.506836 0.015625)"/>
     <use xlink:href="#DejaVuSans-69" transform="translate(1905.786133 0.015625)"/>
     <use xlink:href="#DejaVuSans-6e" transform="translate(1933.569336 0.015625)"/>
     <use xlink:href="#DejaVuSans-74" transform="translate(1996.948242 0.015625)"/>
     <use xlink:href="#DejaVuSans-79" transform="translate(2036.157227 0.015625)"/>
    </g>
   </g>
   <g id="legend_1">
    <g id="patch_7">
     <path d="M 61.01 296.12 
L 132.968906 296.12 
Q 135.168906 296.12 135.168906 293.92 
L 135.168906 246.582187 
Q 135.168906 244.382187 132.968906 244.382187 
L 61.01 244.382187 
Q 58.81 244.382187 58.81 246.582187 
L 58.81 293.92 
Q 58.81 296.12 61.01 296.12 
z
" style="fill: #eaeaf2; opacity: 0.8; stroke: #cccccc; stroke-linejoin: miter"/>
    </g>
    <g id="line2d_18">
     <path d="M 63.21 253.290469 
L 74.21 253.290469 
L 85.21 253.290469 
" style="fill: none; stroke: #0000ff; stroke-width: 2; stroke-linecap: round"/>
    </g>
    <g id="text_18">
     <!-- l = 0.1 -->
     <g style="fill: #262626" transform="translate(94.01 257.140469) scale(0.11 -0.11)">
      <defs>
       <path id="DejaVuSans-3d" d="M 678 2906 
L 4684 2906 
L 4684 2381 
L 678 2381 
L 678 2906 
z
M 678 1631 
L 4684 1631 
L 4684 1100 
L 678 1100 
L 678 1631 
z
" transform="scale(0.015625)"/>
      </defs>
      <use xlink:href="#DejaVuSans-6c"/>
      <use xlink:href="#DejaVuSans-20" x="27.783203"/>
      <use xlink:href="#DejaVuSans-3d" x="59.570312"/>
      <use xlink:href="#DejaVuSans-20" x="143.359375"/>
      <use xlink:href="#DejaVuSans-30" x="175.146484"/>
      <use xlink:href="#DejaVuSans-2e" x="238.769531"/>
      <use xlink:href="#DejaVuSans-31" x="270.556641"/>
     </g>
    </g>
    <g id="line2d_19">
     <path d="M 63.21 269.436406 
L 74.21 269.436406 
L 85.21 269.436406 
" style="fill: none; stroke: #ffa500; stroke-width: 2; stroke-linecap: round"/>
    </g>
    <g id="text_19">
     <!-- l = 0.2 -->
     <g style="fill: #262626" transform="translate(94.01 273.286406) scale(0.11 -0.11)">
      <use xlink:href="#DejaVuSans-6c"/>
      <use xlink:href="#DejaVuSans-20" x="27.783203"/>
      <use xlink:href="#DejaVuSans-3d" x="59.570312"/>
      <use xlink:href="#DejaVuSans-20" x="143.359375"/>
      <use xlink:href="#DejaVuSans-30" x="175.146484"/>
      <use xlink:href="#DejaVuSans-2e" x="238.769531"/>
      <use xlink:href="#DejaVuSans-32" x="270.556641"/>
     </g>
    </g>
    <g id="line2d_20">
     <path d="M 63.21 285.582344 
L 74.21 285.582344 
L 85.21 285.582344 
" style="fill: none; stroke: #008000; stroke-width: 2; stroke-linecap: round"/>
    </g>
    <g id="text_20">
     <!-- l = 0.3 -->
     <g style="fill: #262626" transform="translate(94.01 289.432344) scale(0.11 -0.11)">
      <use xlink:href="#DejaVuSans-6c"/>
      <use xlink:href="#DejaVuSans-20" x="27.783203"/>
      <use xlink:href="#DejaVuSans-3d" x="59.570312"/>
      <use xlink:href="#DejaVuSans-20" x="143.359375"/>
      <use xlink:href="#DejaVuSans-30" x="175.146484"/>
      <use xlink:href="#DejaVuSans-2e" x="238.769531"/>
      <use xlink:href="#DejaVuSans-33" x="270.556641"/>
     </g>
    </g>
   </g>
  </g>
  <g id="axes_2">
   <g id="patch_8">
    <path d="M 478.83 301.62 
L 844.05 301.62 
L 844.05 22.32 
L 478.83 22.32 
z
" style="fill: #eaeaf2"/>
   </g>
   <g id="matplotlib.axis_3">
    <g id="xtick_8">
     <g id="line2d_21">
      <path d="M 495.430909 301.62 
L 495.430909 22.32 
" clip-path="url(#pac0fad1f80)" style="fill: none; stroke: #ffffff; stroke-opacity: 0.3; stroke-linecap: round"/>
     </g>
     <g id="text_21">
      <!-- 0.0 -->
      <g style="fill: #262626" transform="translate(486.68419 319.478281) scale(0.11 -0.11)">
       <use xlink:href="#DejaVuSans-30"/>
       <use xlink:href="#DejaVuSans-2e" x="63.623047"/>
       <use xlink:href="#DejaVuSans-30" x="95.410156"/>
      </g>
     </g>
    </g>
    <g id="xtick_9">
     <g id="line2d_22">
      <path d="M 548.553818 301.62 
L 548.553818 22.32 
" clip-path="url(#pac0fad1f80)" style="fill: none; stroke: #ffffff; stroke-opacity: 0.3; stroke-linecap: round"/>
     </g>
     <g id="text_22">
      <!-- 0.2 -->
      <g style="fill: #262626" transform="translate(539.807099 319.478281) scale(0.11 -0.11)">
       <use xlink:href="#DejaVuSans-30"/>
       <use xlink:href="#DejaVuSans-2e" x="63.623047"/>
       <use xlink:href="#DejaVuSans-32" x="95.410156"/>
      </g>
     </g>
    </g>
    <g id="xtick_10">
     <g id="line2d_23">
      <path d="M 601.676727 301.62 
L 601.676727 22.32 
" clip-path="url(#pac0fad1f80)" style="fill: none; stroke: #ffffff; stroke-opacity: 0.3; stroke-linecap: round"/>
     </g>
     <g id="text_23">
      <!-- 0.4 -->
      <g style="fill: #262626" transform="translate(592.930009 319.478281) scale(0.11 -0.11)">
       <use xlink:href="#DejaVuSans-30"/>
       <use xlink:href="#DejaVuSans-2e" x="63.623047"/>
       <use xlink:href="#DejaVuSans-34" x="95.410156"/>
      </g>
     </g>
    </g>
    <g id="xtick_11">
     <g id="line2d_24">
      <path d="M 654.799636 301.62 
L 654.799636 22.32 
" clip-path="url(#pac0fad1f80)" style="fill: none; stroke: #ffffff; stroke-opacity: 0.3; stroke-linecap: round"/>
     </g>
     <g id="text_24">
      <!-- 0.6 -->
      <g style="fill: #262626" transform="translate(646.052918 319.478281) scale(0.11 -0.11)">
       <use xlink:href="#DejaVuSans-30"/>
       <use xlink:href="#DejaVuSans-2e" x="63.623047"/>
       <use xlink:href="#DejaVuSans-36" x="95.410156"/>
      </g>
     </g>
    </g>
    <g id="xtick_12">
     <g id="line2d_25">
      <path d="M 707.922545 301.62 
L 707.922545 22.32 
" clip-path="url(#pac0fad1f80)" style="fill: none; stroke: #ffffff; stroke-opacity: 0.3; stroke-linecap: round"/>
     </g>
     <g id="text_25">
      <!-- 0.8 -->
      <g style="fill: #262626" transform="translate(699.175827 319.478281) scale(0.11 -0.11)">
       <use xlink:href="#DejaVuSans-30"/>
       <use xlink:href="#DejaVuSans-2e" x="63.623047"/>
       <use xlink:href="#DejaVuSans-38" x="95.410156"/>
      </g>
     </g>
    </g>
    <g id="xtick_13">
     <g id="line2d_26">
      <path d="M 761.045455 301.62 
L 761.045455 22.32 
" clip-path="url(#pac0fad1f80)" style="fill: none; stroke: #ffffff; stroke-opacity: 0.3; stroke-linecap: round"/>
     </g>
     <g id="text_26">
      <!-- 1.0 -->
      <g style="fill: #262626" transform="translate(752.298736 319.478281) scale(0.11 -0.11)">
       <use xlink:href="#DejaVuSans-31"/>
       <use xlink:href="#DejaVuSans-2e" x="63.623047"/>
       <use xlink:href="#DejaVuSans-30" x="95.410156"/>
      </g>
     </g>
    </g>
    <g id="xtick_14">
     <g id="line2d_27">
      <path d="M 814.168364 301.62 
L 814.168364 22.32 
" clip-path="url(#pac0fad1f80)" style="fill: none; stroke: #ffffff; stroke-opacity: 0.3; stroke-linecap: round"/>
     </g>
     <g id="text_27">
      <!-- 1.2 -->
      <g style="fill: #262626" transform="translate(805.421645 319.478281) scale(0.11 -0.11)">
       <use xlink:href="#DejaVuSans-31"/>
       <use xlink:href="#DejaVuSans-2e" x="63.623047"/>
       <use xlink:href="#DejaVuSans-32" x="95.410156"/>
      </g>
     </g>
    </g>
    <g id="text_28">
     <!-- Normalized trajectory progression s -->
     <g style="fill: #262626" transform="translate(554.33625 334.884062) scale(0.12 -0.12)">
      <use xlink:href="#DejaVuSans-4e"/>
      <use xlink:href="#DejaVuSans-6f" x="74.804688"/>
      <use xlink:href="#DejaVuSans-72" x="135.986328"/>
      <use xlink:href="#DejaVuSans-6d" x="175.349609"/>
      <use xlink:href="#DejaVuSans-61" x="272.761719"/>
      <use xlink:href="#DejaVuSans-6c" x="334.041016"/>
      <use xlink:href="#DejaVuSans-69" x="361.824219"/>
      <use xlink:href="#DejaVuSans-7a" x="389.607422"/>
      <use xlink:href="#DejaVuSans-65" x="442.097656"/>
      <use xlink:href="#DejaVuSans-64" x="503.621094"/>
      <use xlink:href="#DejaVuSans-20" x="567.097656"/>
      <use xlink:href="#DejaVuSans-74" x="598.884766"/>
      <use xlink:href="#DejaVuSans-72" x="638.09375"/>
      <use xlink:href="#DejaVuSans-61" x="679.207031"/>
      <use xlink:href="#DejaVuSans-6a" x="740.486328"/>
      <use xlink:href="#DejaVuSans-65" x="768.269531"/>
      <use xlink:href="#DejaVuSans-63" x="829.792969"/>
      <use xlink:href="#DejaVuSans-74" x="884.773438"/>
      <use xlink:href="#DejaVuSans-6f" x="923.982422"/>
      <use xlink:href="#DejaVuSans-72" x="985.164062"/>
      <use xlink:href="#DejaVuSans-79" x="1026.277344"/>
      <use xlink:href="#DejaVuSans-20" x="1085.457031"/>
      <use xlink:href="#DejaVuSans-70" x="1117.244141"/>
      <use xlink:href="#DejaVuSans-72" x="1180.720703"/>
      <use xlink:href="#DejaVuSans-6f" x="1219.583984"/>
      <use xlink:href="#DejaVuSans-67" x="1280.765625"/>
      <use xlink:href="#DejaVuSans-72" x="1344.242188"/>
      <use xlink:href="#DejaVuSans-65" x="1383.105469"/>
      <use xlink:href="#DejaVuSans-73" x="1444.628906"/>
      <use xlink:href="#DejaVuSans-73" x="1496.728516"/>
      <use xlink:href="#DejaVuSans-69" x="1548.828125"/>
      <use xlink:href="#DejaVuSans-6f" x="1576.611328"/>
      <use xlink:href="#DejaVuSans-6e" x="1637.792969"/>
      <use xlink:href="#DejaVuSans-20" x="1701.171875"/>
      <use xlink:href="#DejaVuSans-73" x="1732.958984"/>
     </g>
    </g>
   </g>
   <g id="matplotlib.axis_4">
    <g id="ytick_8">
     <g id="line2d_28">
      <path d="M 478.83 288.925316 
L 844.05 288.925316 
" clip-path="url(#pac0fad1f80)" style="fill: none; stroke: #ffffff; stroke-opacity: 0.3; stroke-linecap: round"/>
     </g>
     <g id="text_29">
      <!-- 0 -->
      <g style="fill: #262626" transform="translate(462.33125 293.104456) scale(0.11 -0.11)">
       <use xlink:href="#DejaVuSans-30"/>
      </g>
     </g>
    </g>
    <g id="ytick_9">
     <g id="line2d_29">
      <path d="M 478.83 250.792912 
L 844.05 250.792912 
" clip-path="url(#pac0fad1f80)" style="fill: none; stroke: #ffffff; stroke-opacity: 0.3; stroke-linecap: round"/>
     </g>
     <g id="text_30">
      <!-- 100 -->
      <g style="fill: #262626" transform="translate(448.33375 254.972053) scale(0.11 -0.11)">
       <use xlink:href="#DejaVuSans-31"/>
       <use xlink:href="#DejaVuSans-30" x="63.623047"/>
       <use xlink:href="#DejaVuSans-30" x="127.246094"/>
      </g>
     </g>
    </g>
    <g id="ytick_10">
     <g id="line2d_30">
      <path d="M 478.83 212.660508 
L 844.05 212.660508 
" clip-path="url(#pac0fad1f80)" style="fill: none; stroke: #ffffff; stroke-opacity: 0.3; stroke-linecap: round"/>
     </g>
     <g id="text_31">
      <!-- 200 -->
      <g style="fill: #262626" transform="translate(448.33375 216.839649) scale(0.11 -0.11)">
       <use xlink:href="#DejaVuSans-32"/>
       <use xlink:href="#DejaVuSans-30" x="63.623047"/>
       <use xlink:href="#DejaVuSans-30" x="127.246094"/>
      </g>
     </g>
    </g>
    <g id="ytick_11">
     <g id="line2d_31">
      <path d="M 478.83 174.528105 
L 844.05 174.528105 
" clip-path="url(#pac0fad1f80)" style="fill: none; stroke: #ffffff; stroke-opacity: 0.3; stroke-linecap: round"/>
     </g>
     <g id="text_32">
      <!-- 300 -->
      <g style="fill: #262626" transform="translate(448.33375 178.707245) scale(0.11 -0.11)">
       <use xlink:href="#DejaVuSans-33"/>
       <use xlink:href="#DejaVuSans-30" x="63.623047"/>
       <use xlink:href="#DejaVuSans-30" x="127.246094"/>
      </g>
     </g>
    </g>
    <g id="ytick_12">
     <g id="line2d_32">
      <path d="M 478.83 136.395701 
L 844.05 136.395701 
" clip-path="url(#pac0fad1f80)" style="fill: none; stroke: #ffffff; stroke-opacity: 0.3; stroke-linecap: round"/>
     </g>
     <g id="text_33">
      <!-- 400 -->
      <g style="fill: #262626" transform="translate(448.33375 140.574842) scale(0.11 -0.11)">
       <use xlink:href="#DejaVuSans-34"/>
       <use xlink:href="#DejaVuSans-30" x="63.623047"/>
       <use xlink:href="#DejaVuSans-30" x="127.246094"/>
      </g>
     </g>
    </g>
    <g id="ytick_13">
     <g id="line2d_33">
      <path d="M 478.83 98.263297 
L 844.05 98.263297 
" clip-path="url(#pac0fad1f80)" style="fill: none; stroke: #ffffff; stroke-opacity: 0.3; stroke-linecap: round"/>
     </g>
     <g id="text_34">
      <!-- 500 -->
      <g style="fill: #262626" transform="translate(448.33375 102.442438) scale(0.11 -0.11)">
       <use xlink:href="#DejaVuSans-35"/>
       <use xlink:href="#DejaVuSans-30" x="63.623047"/>
       <use xlink:href="#DejaVuSans-30" x="127.246094"/>
      </g>
     </g>
    </g>
    <g id="ytick_14">
     <g id="line2d_34">
      <path d="M 478.83 60.130894 
L 844.05 60.130894 
" clip-path="url(#pac0fad1f80)" style="fill: none; stroke: #ffffff; stroke-opacity: 0.3; stroke-linecap: round"/>
     </g>
     <g id="text_35">
      <!-- 600 -->
      <g style="fill: #262626" transform="translate(448.33375 64.310034) scale(0.11 -0.11)">
       <use xlink:href="#DejaVuSans-36"/>
       <use xlink:href="#DejaVuSans-30" x="63.623047"/>
       <use xlink:href="#DejaVuSans-30" x="127.246094"/>
      </g>
     </g>
    </g>
    <g id="text_36">
     <!-- Gp[x] in [N/m] -->
     <g style="fill: #262626" transform="translate(441.838125 204.980625) rotate(-90) scale(0.12 -0.12)">
      <use xlink:href="#DejaVuSans-47"/>
      <use xlink:href="#DejaVuSans-70" x="77.490234"/>
      <use xlink:href="#DejaVuSans-5b" x="140.966797"/>
      <use xlink:href="#DejaVuSans-78" x="179.980469"/>
      <use xlink:href="#DejaVuSans-5d" x="239.160156"/>
      <use xlink:href="#DejaVuSans-20" x="278.173828"/>
      <use xlink:href="#DejaVuSans-69" x="309.960938"/>
      <use xlink:href="#DejaVuSans-6e" x="337.744141"/>
      <use xlink:href="#DejaVuSans-20" x="401.123047"/>
      <use xlink:href="#DejaVuSans-5b" x="432.910156"/>
      <use xlink:href="#DejaVuSans-4e" x="471.923828"/>
      <use xlink:href="#DejaVuSans-2f" x="546.728516"/>
      <use xlink:href="#DejaVuSans-6d" x="580.419922"/>
      <use xlink:href="#DejaVuSans-5d" x="677.832031"/>
     </g>
    </g>
   </g>
   <g id="line2d_35">
    <path d="M 495.430909 37.534043 
L 496.096276 36.022217 
L 496.761643 35.805516 
L 499.423112 35.664224 
L 536.018302 35.279116 
L 549.325644 35.397526 
L 554.648581 35.644539 
L 557.975416 35.979685 
L 560.636885 36.425441 
L 563.298353 37.103488 
L 565.294454 37.811135 
L 567.290556 38.723418 
L 569.286657 39.861403 
L 571.282758 41.233266 
L 573.27886 42.831114 
L 575.940328 45.27557 
L 578.601796 48.016178 
L 581.928632 51.771655 
L 585.255467 55.854398 
L 588.582303 60.265707 
L 596.566708 71.082309 
L 602.555012 78.504493 
L 605.21648 82.3453 
L 610.539417 90.327814 
L 612.535518 92.80181 
L 613.866253 94.108063 
L 615.196987 95.050132 
L 616.527721 95.567956 
L 617.858455 95.647542 
L 619.189189 95.343275 
L 621.185291 94.465462 
L 623.181392 93.631436 
L 624.512126 93.322047 
L 627.838962 92.927716 
L 629.169696 92.363562 
L 630.50043 91.300047 
L 631.831164 89.756424 
L 635.823367 84.565182 
L 637.154101 83.367404 
L 639.150202 82.031143 
L 641.146304 80.646289 
L 642.477038 79.330771 
L 643.807772 77.492557 
L 645.138506 75.048677 
L 646.46924 72.061145 
L 649.796076 63.998439 
L 651.12681 61.384767 
L 652.457544 59.349329 
L 653.788278 57.806832 
L 655.78438 56.042351 
L 658.445848 53.859671 
L 660.441949 51.873035 
L 662.438051 49.463766 
L 666.430253 44.32012 
L 668.426355 42.22992 
L 670.422456 40.57449 
L 672.418557 39.244155 
L 674.414658 38.169442 
L 676.41076 37.340661 
L 678.406861 36.748725 
L 680.402962 36.357507 
L 683.064431 36.058042 
L 687.056633 35.868588 
L 694.375671 35.805251 
L 703.690811 35.679641 
L 716.998153 35.468234 
L 740.951368 35.443341 
L 759.581647 35.543278 
L 760.247014 35.572428 
L 760.912381 36.351202 
L 761.577748 40.363846 
L 762.243115 50.946988 
L 762.908482 69.793441 
L 764.239217 123.89536 
L 765.569951 178.99146 
L 766.900685 287.404648 
L 767.566052 288.845309 
L 772.888989 288.912956 
L 814.807116 288.924515 
L 827.449091 288.924545 
L 827.449091 288.924545 
" clip-path="url(#pac0fad1f80)" style="fill: none; stroke: #0000ff; stroke-width: 2; stroke-linecap: round"/>
   </g>
   <g id="line2d_36">
    <path d="M 495.430909 36.083559 
L 496.096276 35.466506 
L 496.761643 35.260764 
L 499.423112 35.188687 
L 506.076783 35.156395 
L 549.991011 35.256136 
L 555.979315 35.491593 
L 559.971518 35.842016 
L 563.298353 36.328809 
L 566.625189 37.041734 
L 569.952024 38.000171 
L 573.27886 39.182541 
L 577.271062 40.845957 
L 581.263265 42.739559 
L 585.255467 44.872261 
L 589.24767 47.265191 
L 594.570607 50.772373 
L 599.228176 54.066678 
L 601.889645 56.212296 
L 603.885746 58.055119 
L 605.881847 60.135 
L 608.543316 63.24937 
L 613.200885 68.855708 
L 614.53162 70.162557 
L 615.862354 71.197652 
L 617.193088 71.914875 
L 618.523822 72.303204 
L 619.854556 72.387636 
L 621.185291 72.220542 
L 623.181392 71.643565 
L 625.84286 70.569075 
L 629.835063 68.724031 
L 635.823367 65.654201 
L 638.484835 64.14375 
L 640.480936 62.719974 
L 641.811671 61.533797 
L 643.142405 60.125017 
L 645.138506 57.638075 
L 649.130709 52.365933 
L 650.461443 50.906458 
L 651.792177 49.694136 
L 653.788278 48.277271 
L 659.776582 44.610848 
L 663.103418 42.008889 
L 665.764886 40.00118 
L 667.760987 38.76463 
L 669.757089 37.800512 
L 671.75319 37.072102 
L 674.414658 36.387623 
L 677.076127 35.955745 
L 680.402962 35.660071 
L 685.725899 35.469397 
L 703.690811 35.253532 
L 720.324988 35.201829 
L 759.581647 35.299065 
L 760.247014 35.488319 
L 760.912381 36.077483 
L 761.577748 37.437269 
L 762.243115 39.999933 
L 762.908482 44.176317 
L 763.57385 50.272706 
L 764.239217 58.42152 
L 765.569951 80.361993 
L 767.566052 121.383927 
L 770.22752 176.375086 
L 770.892888 196.224545 
L 772.223622 275.421942 
L 772.888989 287.466506 
L 773.554356 288.756296 
L 774.88509 288.858582 
L 788.192432 288.917049 
L 827.449091 288.924175 
L 827.449091 288.924175 
" clip-path="url(#pac0fad1f80)" style="fill: none; stroke: #ffa500; stroke-width: 2; stroke-linecap: round"/>
   </g>
   <g id="line2d_37">
    <path d="M 495.430909 36.248382 
L 496.096276 35.736063 
L 496.761643 35.459372 
L 498.092377 35.262161 
L 502.749947 35.184425 
L 536.018302 35.022371 
L 552.65248 35.098428 
L 560.636885 35.35756 
L 565.294454 35.766639 
L 569.286657 36.354335 
L 572.613492 37.066424 
L 575.940328 38.018459 
L 579.267163 39.203721 
L 582.593999 40.645103 
L 585.920834 42.36432 
L 589.24767 44.367872 
L 593.239872 47.111042 
L 598.562809 51.135242 
L 608.543316 58.805275 
L 611.204784 60.561107 
L 613.200885 61.65328 
L 615.196987 62.480518 
L 617.193088 63.029141 
L 619.189189 63.29129 
L 621.185291 63.288862 
L 623.181392 63.058958 
L 625.84286 62.470601 
L 628.504329 61.639114 
L 631.165797 60.611246 
L 633.827265 59.387015 
L 636.488734 57.930269 
L 639.150202 56.189349 
L 641.811671 54.149847 
L 650.461443 47.155272 
L 653.788278 45.06475 
L 664.434152 38.808007 
L 666.430253 37.941599 
L 668.426355 37.271496 
L 671.087823 36.639748 
L 674.414658 36.142563 
L 678.406861 35.790385 
L 684.395165 35.513592 
L 696.371773 35.229703 
L 712.340583 35.146387 
L 754.25871 35.024831 
L 759.581647 35.101146 
L 760.247014 35.224814 
L 760.912381 35.500206 
L 761.577748 36.020315 
L 762.243115 36.891822 
L 762.908482 38.227007 
L 763.57385 40.135175 
L 764.239217 42.714081 
L 764.904584 46.041764 
L 765.569951 50.169595 
L 766.900685 60.869772 
L 768.231419 74.568225 
L 770.22752 99.119106 
L 774.219723 152.646658 
L 774.88509 162.846923 
L 775.550457 175.969124 
L 776.215824 196.281125 
L 777.546559 262.631348 
L 778.211926 281.613155 
L 778.877293 287.385431 
L 779.54266 288.603838 
L 780.208027 288.811794 
L 783.534862 288.872212 
L 806.822711 288.91943 
L 827.449091 288.923021 
L 827.449091 288.923021 
" clip-path="url(#pac0fad1f80)" style="fill: none; stroke: #008000; stroke-width: 2; stroke-linecap: round"/>
   </g>
   <g id="patch_9">
    <path d="M 478.83 301.62 
L 478.83 22.32 
" style="fill: none; stroke: #ffffff; stroke-width: 1.25; stroke-linejoin: miter; stroke-linecap: square"/>
   </g>
   <g id="patch_10">
    <path d="M 844.05 301.62 
L 844.05 22.32 
" style="fill: none; stroke: #ffffff; stroke-width: 1.25; stroke-linejoin: miter; stroke-linecap: square"/>
   </g>
   <g id="patch_11">
    <path d="M 478.83 301.62 
L 844.05 301.62 
" style="fill: none; stroke: #ffffff; stroke-width: 1.25; stroke-linejoin: miter; stroke-linecap: square"/>
   </g>
   <g id="patch_12">
    <path d="M 478.83 22.32 
L 844.05 22.32 
" style="fill: none; stroke: #ffffff; stroke-width: 1.25; stroke-linejoin: miter; stroke-linecap: square"/>
   </g>
   <g id="text_37">
    <!-- Stiffness ($G_P$) using uncertainty split -->
    <g style="fill: #262626" transform="translate(552.66 16.32) scale(0.12 -0.12)">
     <use xlink:href="#DejaVuSans-53" transform="translate(0 0.015625)"/>
     <use xlink:href="#DejaVuSans-74" transform="translate(63.476562 0.015625)"/>
     <use xlink:href="#DejaVuSans-69" transform="translate(102.685547 0.015625)"/>
     <use xlink:href="#DejaVuSans-66" transform="translate(130.46875 0.015625)"/>
     <use xlink:href="#DejaVuSans-66" transform="translate(165.673828 0.015625)"/>
     <use xlink:href="#DejaVuSans-6e" transform="translate(200.878906 0.015625)"/>
     <use xlink:href="#DejaVuSans-65" transform="translate(264.257812 0.015625)"/>
     <use xlink:href="#DejaVuSans-73" transform="translate(325.78125 0.015625)"/>
     <use xlink:href="#DejaVuSans-73" transform="translate(377.880859 0.015625)"/>
     <use xlink:href="#DejaVuSans-20" transform="translate(429.980469 0.015625)"/>
     <use xlink:href="#DejaVuSans-28" transform="translate(461.767578 0.015625)"/>
     <use xlink:href="#DejaVuSans-Oblique-47" transform="translate(500.78125 0.015625)"/>
     <use xlink:href="#DejaVuSans-Oblique-50" transform="translate(578.271484 -16.390625) scale(0.7)"/>
     <use xlink:href="#DejaVuSans-29" transform="translate(623.217773 0.015625)"/>
     <use xlink:href="#DejaVuSans-20" transform="translate(662.231445 0.015625)"/>
     <use xlink:href="#DejaVuSans-75" transform="translate(694.018555 0.015625)"/>
     <use xlink:href="#DejaVuSans-73" transform="translate(757.397461 0.015625)"/>
     <use xlink:href="#DejaVuSans-69" transform="translate(809.49707 0.015625)"/>
     <use xlink:href="#DejaVuSans-6e" transform="translate(837.280273 0.015625)"/>
     <use xlink:href="#DejaVuSans-67" transform="translate(900.65918 0.015625)"/>
     <use xlink:href="#DejaVuSans-20" transform="translate(964.135742 0.015625)"/>
     <use xlink:href="#DejaVuSans-75" transform="translate(995.922852 0.015625)"/>
     <use xlink:href="#DejaVuSans-6e" transform="translate(1059.301758 0.015625)"/>
     <use xlink:href="#DejaVuSans-63" transform="translate(1122.680664 0.015625)"/>
     <use xlink:href="#DejaVuSans-65" transform="translate(1177.661133 0.015625)"/>
     <use xlink:href="#DejaVuSans-72" transform="translate(1239.18457 0.015625)"/>
     <use xlink:href="#DejaVuSans-74" transform="translate(1280.297852 0.015625)"/>
     <use xlink:href="#DejaVuSans-61" transform="translate(1319.506836 0.015625)"/>
     <use xlink:href="#DejaVuSans-69" transform="translate(1380.786133 0.015625)"/>
     <use xlink:href="#DejaVuSans-6e" transform="translate(1408.569336 0.015625)"/>
     <use xlink:href="#DejaVuSans-74" transform="translate(1471.948242 0.015625)"/>
     <use xlink:href="#DejaVuSans-79" transform="translate(1511.157227 0.015625)"/>
     <use xlink:href="#DejaVuSans-20" transform="translate(1570.336914 0.015625)"/>
     <use xlink:href="#DejaVuSans-73" transform="translate(1602.124023 0.015625)"/>
     <use xlink:href="#DejaVuSans-70" transform="translate(1654.223633 0.015625)"/>
     <use xlink:href="#DejaVuSans-6c" transform="translate(1717.700195 0.015625)"/>
     <use xlink:href="#DejaVuSans-69" transform="translate(1745.483398 0.015625)"/>
     <use xlink:href="#DejaVuSans-74" transform="translate(1773.266602 0.015625)"/>
    </g>
   </g>
   <g id="legend_2">
    <g id="patch_13">
     <path d="M 486.53 296.12 
L 558.488906 296.12 
Q 560.688906 296.12 560.688906 293.92 
L 560.688906 246.582187 
Q 560.688906 244.382187 558.488906 244.382187 
L 486.53 244.382187 
Q 484.33 244.382187 484.33 246.582187 
L 484.33 293.92 
Q 484.33 296.12 486.53 296.12 
z
" style="fill: #eaeaf2; opacity: 0.8; stroke: #cccccc; stroke-linejoin: miter"/>
    </g>
    <g id="line2d_38">
     <path d="M 488.73 253.290469 
L 499.73 253.290469 
L 510.73 253.290469 
" style="fill: none; stroke: #0000ff; stroke-width: 2; stroke-linecap: round"/>
    </g>
    <g id="text_38">
     <!-- l = 0.1 -->
     <g style="fill: #262626" transform="translate(519.53 257.140469) scale(0.11 -0.11)">
      <use xlink:href="#DejaVuSans-6c"/>
      <use xlink:href="#DejaVuSans-20" x="27.783203"/>
      <use xlink:href="#DejaVuSans-3d" x="59.570312"/>
      <use xlink:href="#DejaVuSans-20" x="143.359375"/>
      <use xlink:href="#DejaVuSans-30" x="175.146484"/>
      <use xlink:href="#DejaVuSans-2e" x="238.769531"/>
      <use xlink:href="#DejaVuSans-31" x="270.556641"/>
     </g>
    </g>
    <g id="line2d_39">
     <path d="M 488.73 269.436406 
L 499.73 269.436406 
L 510.73 269.436406 
" style="fill: none; stroke: #ffa500; stroke-width: 2; stroke-linecap: round"/>
    </g>
    <g id="text_39">
     <!-- l = 0.2 -->
     <g style="fill: #262626" transform="translate(519.53 273.286406) scale(0.11 -0.11)">
      <use xlink:href="#DejaVuSans-6c"/>
      <use xlink:href="#DejaVuSans-20" x="27.783203"/>
      <use xlink:href="#DejaVuSans-3d" x="59.570312"/>
      <use xlink:href="#DejaVuSans-20" x="143.359375"/>
      <use xlink:href="#DejaVuSans-30" x="175.146484"/>
      <use xlink:href="#DejaVuSans-2e" x="238.769531"/>
      <use xlink:href="#DejaVuSans-32" x="270.556641"/>
     </g>
    </g>
    <g id="line2d_40">
     <path d="M 488.73 285.582344 
L 499.73 285.582344 
L 510.73 285.582344 
" style="fill: none; stroke: #008000; stroke-width: 2; stroke-linecap: round"/>
    </g>
    <g id="text_40">
     <!-- l = 0.3 -->
     <g style="fill: #262626" transform="translate(519.53 289.432344) scale(0.11 -0.11)">
      <use xlink:href="#DejaVuSans-6c"/>
      <use xlink:href="#DejaVuSans-20" x="27.783203"/>
      <use xlink:href="#DejaVuSans-3d" x="59.570312"/>
      <use xlink:href="#DejaVuSans-20" x="143.359375"/>
      <use xlink:href="#DejaVuSans-30" x="175.146484"/>
      <use xlink:href="#DejaVuSans-2e" x="238.769531"/>
      <use xlink:href="#DejaVuSans-33" x="270.556641"/>
     </g>
    </g>
   </g>
  </g>
 </g>
 <defs>
  <clipPath id="p16c1bbb2d8">
   <rect x="53.31" y="22.32" width="365.22" height="279.3"/>
  </clipPath>
  <clipPath id="pac0fad1f80">
   <rect x="478.83" y="22.32" width="365.22" height="279.3"/>
  </clipPath>
 </defs>
</svg>
