<?xml version="1.0" encoding="utf-8" standalone="no"?>
<!DOCTYPE svg PUBLIC "-//W3C//DTD SVG 1.1//EN"
  "http://www.w3.org/Graphics/SVG/1.1/DTD/svg11.dtd">
<svg xmlns:xlink="http://www.w3.org/1999/xlink" width="851.25pt" height="341.625437pt" viewBox="0 0 851.25 341.625437" xmlns="http://www.w3.org/2000/svg" version="1.1">
 <metadata>
  <rdf:RDF xmlns:dc="http://purl.org/dc/elements/1.1/" xmlns:cc="http://creativecommons.org/ns#" xmlns:rdf="http://www.w3.org/1999/02/22-rdf-syntax-ns#">
   <cc:Work>
    <dc:type rdf:resource="http://purl.org/dc/dcmitype/StillImage"/>
    <dc:date>2026-02-27T13:38:13.863913</dc:date>
    <dc:format>image/svg+xml</dc:format>
    <dc:creator>
     <cc:Agent>
      <dc:title>Matplotlib v3.9.4, https://matplotlib.org/</dc:title>
     </cc:Agent>
    </dc:creator>
   </cc:Work>
  </rdf:RDF>
 </metadata>
 <defs>
  <style type="text/css">*{stroke-linejoin: round; stroke-linecap: butt}</style>
 </defs>
 <g id="figure_1">
  <g id="patch_1">
   <path d="M 0 341.625437 
L 851.25 341.625437 
L 851.25 0 
L 0 0 
z
" style="fill: #ffffff"/>
  </g>
  <g id="axes_1">
   <g id="patch_2">
    <path d="M 53.31 298.66575 
L 418.53 298.66575 
L 418.53 35.78175 
L 53.31 35.78175 
z
" style="fill: #eaeaf2"/>
   </g>
   <g id="matplotlib.axis_1">
    <g id="xtick_1">
     <g id="line2d_1">
      <path d="M 69.910909 298.66575 
L 69.910909 35.78175 
" clip-path="url(#p47468e8c62)" style="fill: none; stroke: #ffffff; stroke-opacity: 0.3; stroke-linecap: round"/>
     </g>
     <g id="text_1">
      <!-- 0.0 -->
      <g style="fill: #262626" transform="translate(61.16419 316.524031) scale(0.11 -0.11)">
       <defs>
        <path id="DejaVuSans-30" d="M 2034 4250 
Q 1547 4250 1301 3770 
Q 1056 3291 1056 2328 
Q 1056 1369 1301 889 
Q 1547 409 2034 409 
Q 2525 409 2770 889 
Q 3016 1369 3016 2328 
Q 3016 3291 2770 3770 
Q 2525 4250 2034 4250 
z
M 2034 4750 
Q 2819 4750 3233 4129 
Q 3647 3509 3647 2328 
Q 3647 1150 3233 529 
Q 2819 -91 2034 -91 
Q 1250 -91 836 529 
Q 422 1150 422 2328 
Q 422 3509 836 4129 
Q 1250 4750 2034 4750 
z
" transform="scale(0.015625)"/>
        <path id="DejaVuSans-2e" d="M 684 794 
L 1344 794 
L 1344 0 
L 684 0 
L 684 794 
z
" transform="scale(0.015625)"/>
       </defs>
       <use xlink:href="#DejaVuSans-30"/>
       <use xlink:href="#DejaVuSans-2e" x="63.623047"/>
       <use xlink:href="#DejaVuSans-30" x="95.410156"/>
      </g>
     </g>
    </g>
    <g id="xtick_2">
     <g id="line2d_2">
      <path d="M 123.033818 298.66575 
L 123.033818 35.78175 
" clip-path="url(#p47468e8c62)" style="fill: none; stroke: #ffffff; stroke-opacity: 0.3; stroke-linecap: round"/>
     </g>
     <g id="text_2">
      <!-- 0.2 -->
      <g style="fill: #262626" transform="translate(114.287099 316.524031) scale(0.11 -0.11)">
       <defs>
        <path id="DejaVuSans-32" d="M 1228 531 
L 3431 531 
L 3431 0 
L 469 0 
L 469 531 
Q 828 903 1448 1529 
Q 2069 2156 2228 2338 
Q 2531 2678 2651 2914 
Q 2772 3150 2772 3378 
Q 2772 3750 2511 3984 
Q 2250 4219 1831 4219 
Q 1534 4219 1204 4116 
Q 875 4013 500 3803 
L 500 4441 
Q 881 4594 1212 4672 
Q 1544 4750 1819 4750 
Q 2544 4750 2975 4387 
Q 3406 4025 3406 3419 
Q 3406 3131 3298 2873 
Q 3191 2616 2906 2266 
Q 2828 2175 2409 1742 
Q 1991 1309 1228 531 
z
" transform="scale(0.015625)"/>
       </defs>
       <use xlink:href="#DejaVuSans-30"/>
       <use xlink:href="#DejaVuSans-2e" x="63.623047"/>
       <use xlink:href="#DejaVuSans-32" x="95.410156"/>
      </g>
     </g>
    </g>
    <g id="xtick_3">
     <g id="line2d_3">
      <path d="M 176.156727 298.66575 
L 176.156727 35.78175 
" clip-path="url(#p47468e8c62)" style="fill: none; stroke: #ffffff; stroke-opacity: 0.3; stroke-linecap: round"/>
     </g>
     <g id="text_3">
      <!-- 0.4 -->
      <g style="fill: #262626" transform="translate(167.410009 316.524031) scale(0.11 -0.11)">
       <defs>
        <path id="DejaVuSans-34" d="M 2419 4116 
L 825 1625 
L 2419 1625 
L 2419 4116 
z
M 2253 4666 
L 3047 4666 
L 3047 1625 
L 3713 1625 
L 3713 1100 
L 3047 1100 
L 3047 0 
L 2419 0 
L 2419 1100 
L 313 1100 
L 313 1709 
L 2253 4666 
z
" transform="scale(0.015625)"/>
       </defs>
       <use xlink:href="#DejaVuSans-30"/>
       <use xlink:href="#DejaVuSans-2e" x="63.623047"/>
       <use xlink:href="#DejaVuSans-34" x="95.410156"/>
      </g>
     </g>
    </g>
    <g id="xtick_4">
     <g id="line2d_4">
      <path d="M 229.279636 298.66575 
L 229.279636 35.78175 
" clip-path="url(#p47468e8c62)" style="fill: none; stroke: #ffffff; stroke-opacity: 0.3; stroke-linecap: round"/>
     </g>
     <g id="text_4">
      <!-- 0.6 -->
      <g style="fill: #262626" transform="translate(220.532918 316.524031) scale(0.11 -0.11)">
       <defs>
        <path id="DejaVuSans-36" d="M 2113 2584 
Q 1688 2584 1439 2293 
Q 1191 2003 1191 1497 
Q 1191 994 1439 701 
Q 1688 409 2113 409 
Q 2538 409 2786 701 
Q 3034 994 3034 1497 
Q 3034 2003 2786 2293 
Q 2538 2584 2113 2584 
z
M 3366 4563 
L 3366 3988 
Q 3128 4100 2886 4159 
Q 2644 4219 2406 4219 
Q 1781 4219 1451 3797 
Q 1122 3375 1075 2522 
Q 1259 2794 1537 2939 
Q 1816 3084 2150 3084 
Q 2853 3084 3261 2657 
Q 3669 2231 3669 1497 
Q 3669 778 3244 343 
Q 2819 -91 2113 -91 
Q 1303 -91 875 529 
Q 447 1150 447 2328 
Q 447 3434 972 4092 
Q 1497 4750 2381 4750 
Q 2619 4750 2861 4703 
Q 3103 4656 3366 4563 
z
" transform="scale(0.015625)"/>
       </defs>
       <use xlink:href="#DejaVuSans-30"/>
       <use xlink:href="#DejaVuSans-2e" x="63.623047"/>
       <use xlink:href="#DejaVuSans-36" x="95.410156"/>
      </g>
     </g>
    </g>
    <g id="xtick_5">
     <g id="line2d_5">
      <path d="M 282.402545 298.66575 
L 282.402545 35.78175 
" clip-path="url(#p47468e8c62)" style="fill: none; stroke: #ffffff; stroke-opacity: 0.3; stroke-linecap: round"/>
     </g>
     <g id="text_5">
      <!-- 0.8 -->
      <g style="fill: #262626" transform="translate(273.655827 316.524031) scale(0.11 -0.11)">
       <defs>
        <path id="DejaVuSans-38" d="M 2034 2216 
Q 1584 2216 1326 1975 
Q 1069 1734 1069 1313 
Q 1069 891 1326 650 
Q 1584 409 2034 409 
Q 2484 409 2743 651 
Q 3003 894 3003 1313 
Q 3003 1734 2745 1975 
Q 2488 2216 2034 2216 
z
M 1403 2484 
Q 997 2584 770 2862 
Q 544 3141 544 3541 
Q 544 4100 942 4425 
Q 1341 4750 2034 4750 
Q 2731 4750 3128 4425 
Q 3525 4100 3525 3541 
Q 3525 3141 3298 2862 
Q 3072 2584 2669 2484 
Q 3125 2378 3379 2068 
Q 3634 1759 3634 1313 
Q 3634 634 3220 271 
Q 2806 -91 2034 -91 
Q 1263 -91 848 271 
Q 434 634 434 1313 
Q 434 1759 690 2068 
Q 947 2378 1403 2484 
z
M 1172 3481 
Q 1172 3119 1398 2916 
Q 1625 2713 2034 2713 
Q 2441 2713 2670 2916 
Q 2900 3119 2900 3481 
Q 2900 3844 2670 4047 
Q 2441 4250 2034 4250 
Q 1625 4250 1398 4047 
Q 1172 3844 1172 3481 
z
" transform="scale(0.015625)"/>
       </defs>
       <use xlink:href="#DejaVuSans-30"/>
       <use xlink:href="#DejaVuSans-2e" x="63.623047"/>
       <use xlink:href="#DejaVuSans-38" x="95.410156"/>
      </g>
     </g>
    </g>
    <g id="xtick_6">
     <g id="line2d_6">
      <path d="M 335.525455 298.66575 
L 335.525455 35.78175 
" clip-path="url(#p47468e8c62)" style="fill: none; stroke: #ffffff; stroke-opacity: 0.3; stroke-linecap: round"/>
     </g>
     <g id="text_6">
      <!-- 1.0 -->
      <g style="fill: #262626" transform="translate(326.778736 316.524031) scale(0.11 -0.11)">
       <defs>
        <path id="DejaVuSans-31" d="M 794 531 
L 1825 531 
L 1825 4091 
L 703 3866 
L 703 4441 
L 1819 4666 
L 2450 4666 
L 2450 531 
L 3481 531 
L 3481 0 
L 794 0 
L 794 531 
z
" transform="scale(0.015625)"/>
       </defs>
       <use xlink:href="#DejaVuSans-31"/>
       <use xlink:href="#DejaVuSans-2e" x="63.623047"/>
       <use xlink:href="#DejaVuSans-30" x="95.410156"/>
      </g>
     </g>
    </g>
    <g id="xtick_7">
     <g id="line2d_7">
      <path d="M 388.648364 298.66575 
L 388.648364 35.78175 
" clip-path="url(#p47468e8c62)" style="fill: none; stroke: #ffffff; stroke-opacity: 0.3; stroke-linecap: round"/>
     </g>
     <g id="text_7">
      <!-- 1.2 -->
      <g style="fill: #262626" transform="translate(379.901645 316.524031) scale(0.11 -0.11)">
       <use xlink:href="#DejaVuSans-31"/>
       <use xlink:href="#DejaVuSans-2e" x="63.623047"/>
       <use xlink:href="#DejaVuSans-32" x="95.410156"/>
      </g>
     </g>
    </g>
    <g id="text_8">
     <!-- Normalized trajectory progression s -->
     <g style="fill: #262626" transform="translate(128.81625 331.929812) scale(0.12 -0.12)">
      <defs>
       <path id="DejaVuSans-4e" d="M 628 4666 
L 1478 4666 
L 3547 763 
L 3547 4666 
L 4159 4666 
L 4159 0 
L 3309 0 
L 1241 3903 
L 1241 0 
L 628 0 
L 628 4666 
z
" transform="scale(0.015625)"/>
       <path id="DejaVuSans-6f" d="M 1959 3097 
Q 1497 3097 1228 2736 
Q 959 2375 959 1747 
Q 959 1119 1226 758 
Q 1494 397 1959 397 
Q 2419 397 2687 759 
Q 2956 1122 2956 1747 
Q 2956 2369 2687 2733 
Q 2419 3097 1959 3097 
z
M 1959 3584 
Q 2709 3584 3137 3096 
Q 3566 2609 3566 1747 
Q 3566 888 3137 398 
Q 2709 -91 1959 -91 
Q 1206 -91 779 398 
Q 353 888 353 1747 
Q 353 2609 779 3096 
Q 1206 3584 1959 3584 
z
" transform="scale(0.015625)"/>
       <path id="DejaVuSans-72" d="M 2631 2963 
Q 2534 3019 2420 3045 
Q 2306 3072 2169 3072 
Q 1681 3072 1420 2755 
Q 1159 2438 1159 1844 
L 1159 0 
L 581 0 
L 581 3500 
L 1159 3500 
L 1159 2956 
Q 1341 3275 1631 3429 
Q 1922 3584 2338 3584 
Q 2397 3584 2469 3576 
Q 2541 3569 2628 3553 
L 2631 2963 
z
" transform="scale(0.015625)"/>
       <path id="DejaVuSans-6d" d="M 3328 2828 
Q 3544 3216 3844 3400 
Q 4144 3584 4550 3584 
Q 5097 3584 5394 3201 
Q 5691 2819 5691 2113 
L 5691 0 
L 5113 0 
L 5113 2094 
Q 5113 2597 4934 2840 
Q 4756 3084 4391 3084 
Q 3944 3084 3684 2787 
Q 3425 2491 3425 1978 
L 3425 0 
L 2847 0 
L 2847 2094 
Q 2847 2600 2669 2842 
Q 2491 3084 2119 3084 
Q 1678 3084 1418 2786 
Q 1159 2488 1159 1978 
L 1159 0 
L 581 0 
L 581 3500 
L 1159 3500 
L 1159 2956 
Q 1356 3278 1631 3431 
Q 1906 3584 2284 3584 
Q 2666 3584 2933 3390 
Q 3200 3197 3328 2828 
z
" transform="scale(0.015625)"/>
       <path id="DejaVuSans-61" d="M 2194 1759 
Q 1497 1759 1228 1600 
Q 959 1441 959 1056 
Q 959 750 1161 570 
Q 1363 391 1709 391 
Q 2188 391 2477 730 
Q 2766 1069 2766 1631 
L 2766 1759 
L 2194 1759 
z
M 3341 1997 
L 3341 0 
L 2766 0 
L 2766 531 
Q 2569 213 2275 61 
Q 1981 -91 1556 -91 
Q 1019 -91 701 211 
Q 384 513 384 1019 
Q 384 1609 779 1909 
Q 1175 2209 1959 2209 
L 2766 2209 
L 2766 2266 
Q 2766 2663 2505 2880 
Q 2244 3097 1772 3097 
Q 1472 3097 1187 3025 
Q 903 2953 641 2809 
L 641 3341 
Q 956 3463 1253 3523 
Q 1550 3584 1831 3584 
Q 2591 3584 2966 3190 
Q 3341 2797 3341 1997 
z
" transform="scale(0.015625)"/>
       <path id="DejaVuSans-6c" d="M 603 4863 
L 1178 4863 
L 1178 0 
L 603 0 
L 603 4863 
z
" transform="scale(0.015625)"/>
       <path id="DejaVuSans-69" d="M 603 3500 
L 1178 3500 
L 1178 0 
L 603 0 
L 603 3500 
z
M 603 4863 
L 1178 4863 
L 1178 4134 
L 603 4134 
L 603 4863 
z
" transform="scale(0.015625)"/>
       <path id="DejaVuSans-7a" d="M 353 3500 
L 3084 3500 
L 3084 2975 
L 922 459 
L 3084 459 
L 3084 0 
L 275 0 
L 275 525 
L 2438 3041 
L 353 3041 
L 353 3500 
z
" transform="scale(0.015625)"/>
       <path id="DejaVuSans-65" d="M 3597 1894 
L 3597 1613 
L 953 1613 
Q 991 1019 1311 708 
Q 1631 397 2203 397 
Q 2534 397 2845 478 
Q 3156 559 3463 722 
L 3463 178 
Q 3153 47 2828 -22 
Q 2503 -91 2169 -91 
Q 1331 -91 842 396 
Q 353 884 353 1716 
Q 353 2575 817 3079 
Q 1281 3584 2069 3584 
Q 2775 3584 3186 3129 
Q 3597 2675 3597 1894 
z
M 3022 2063 
Q 3016 2534 2758 2815 
Q 2500 3097 2075 3097 
Q 1594 3097 1305 2825 
Q 1016 2553 972 2059 
L 3022 2063 
z
" transform="scale(0.015625)"/>
       <path id="DejaVuSans-64" d="M 2906 2969 
L 2906 4863 
L 3481 4863 
L 3481 0 
L 2906 0 
L 2906 525 
Q 2725 213 2448 61 
Q 2172 -91 1784 -91 
Q 1150 -91 751 415 
Q 353 922 353 1747 
Q 353 2572 751 3078 
Q 1150 3584 1784 3584 
Q 2172 3584 2448 3432 
Q 2725 3281 2906 2969 
z
M 947 1747 
Q 947 1113 1208 752 
Q 1469 391 1925 391 
Q 2381 391 2643 752 
Q 2906 1113 2906 1747 
Q 2906 2381 2643 2742 
Q 2381 3103 1925 3103 
Q 1469 3103 1208 2742 
Q 947 2381 947 1747 
z
" transform="scale(0.015625)"/>
       <path id="DejaVuSans-20" transform="scale(0.015625)"/>
       <path id="DejaVuSans-74" d="M 1172 4494 
L 1172 3500 
L 2356 3500 
L 2356 3053 
L 1172 3053 
L 1172 1153 
Q 1172 725 1289 603 
Q 1406 481 1766 481 
L 2356 481 
L 2356 0 
L 1766 0 
Q 1100 0 847 248 
Q 594 497 594 1153 
L 594 3053 
L 172 3053 
L 172 3500 
L 594 3500 
L 594 4494 
L 1172 4494 
z
" transform="scale(0.015625)"/>
       <path id="DejaVuSans-6a" d="M 603 3500 
L 1178 3500 
L 1178 -63 
Q 1178 -731 923 -1031 
Q 669 -1331 103 -1331 
L -116 -1331 
L -116 -844 
L 38 -844 
Q 366 -844 484 -692 
Q 603 -541 603 -63 
L 603 3500 
z
M 603 4863 
L 1178 4863 
L 1178 4134 
L 603 4134 
L 603 4863 
z
" transform="scale(0.015625)"/>
       <path id="DejaVuSans-63" d="M 3122 3366 
L 3122 2828 
Q 2878 2963 2633 3030 
Q 2388 3097 2138 3097 
Q 1578 3097 1268 2742 
Q 959 2388 959 1747 
Q 959 1106 1268 751 
Q 1578 397 2138 397 
Q 2388 397 2633 464 
Q 2878 531 3122 666 
L 3122 134 
Q 2881 22 2623 -34 
Q 2366 -91 2075 -91 
Q 1284 -91 818 406 
Q 353 903 353 1747 
Q 353 2603 823 3093 
Q 1294 3584 2113 3584 
Q 2378 3584 2631 3529 
Q 2884 3475 3122 3366 
z
" transform="scale(0.015625)"/>
       <path id="DejaVuSans-79" d="M 2059 -325 
Q 1816 -950 1584 -1140 
Q 1353 -1331 966 -1331 
L 506 -1331 
L 506 -850 
L 844 -850 
Q 1081 -850 1212 -737 
Q 1344 -625 1503 -206 
L 1606 56 
L 191 3500 
L 800 3500 
L 1894 763 
L 2988 3500 
L 3597 3500 
L 2059 -325 
z
" transform="scale(0.015625)"/>
       <path id="DejaVuSans-70" d="M 1159 525 
L 1159 -1331 
L 581 -1331 
L 581 3500 
L 1159 3500 
L 1159 2969 
Q 1341 3281 1617 3432 
Q 1894 3584 2278 3584 
Q 2916 3584 3314 3078 
Q 3713 2572 3713 1747 
Q 3713 922 3314 415 
Q 2916 -91 2278 -91 
Q 1894 -91 1617 61 
Q 1341 213 1159 525 
z
M 3116 1747 
Q 3116 2381 2855 2742 
Q 2594 3103 2138 3103 
Q 1681 3103 1420 2742 
Q 1159 2381 1159 1747 
Q 1159 1113 1420 752 
Q 1681 391 2138 391 
Q 2594 391 2855 752 
Q 3116 1113 3116 1747 
z
" transform="scale(0.015625)"/>
       <path id="DejaVuSans-67" d="M 2906 1791 
Q 2906 2416 2648 2759 
Q 2391 3103 1925 3103 
Q 1463 3103 1205 2759 
Q 947 2416 947 1791 
Q 947 1169 1205 825 
Q 1463 481 1925 481 
Q 2391 481 2648 825 
Q 2906 1169 2906 1791 
z
M 3481 434 
Q 3481 -459 3084 -895 
Q 2688 -1331 1869 -1331 
Q 1566 -1331 1297 -1286 
Q 1028 -1241 775 -1147 
L 775 -588 
Q 1028 -725 1275 -790 
Q 1522 -856 1778 -856 
Q 2344 -856 2625 -561 
Q 2906 -266 2906 331 
L 2906 616 
Q 2728 306 2450 153 
Q 2172 0 1784 0 
Q 1141 0 747 490 
Q 353 981 353 1791 
Q 353 2603 747 3093 
Q 1141 3584 1784 3584 
Q 2172 3584 2450 3431 
Q 2728 3278 2906 2969 
L 2906 3500 
L 3481 3500 
L 3481 434 
z
" transform="scale(0.015625)"/>
       <path id="DejaVuSans-73" d="M 2834 3397 
L 2834 2853 
Q 2591 2978 2328 3040 
Q 2066 3103 1784 3103 
Q 1356 3103 1142 2972 
Q 928 2841 928 2578 
Q 928 2378 1081 2264 
Q 1234 2150 1697 2047 
L 1894 2003 
Q 2506 1872 2764 1633 
Q 3022 1394 3022 966 
Q 3022 478 2636 193 
Q 2250 -91 1575 -91 
Q 1294 -91 989 -36 
Q 684 19 347 128 
L 347 722 
Q 666 556 975 473 
Q 1284 391 1588 391 
Q 1994 391 2212 530 
Q 2431 669 2431 922 
Q 2431 1156 2273 1281 
Q 2116 1406 1581 1522 
L 1381 1569 
Q 847 1681 609 1914 
Q 372 2147 372 2553 
Q 372 3047 722 3315 
Q 1072 3584 1716 3584 
Q 2034 3584 2315 3537 
Q 2597 3491 2834 3397 
z
" transform="scale(0.015625)"/>
       <path id="DejaVuSans-6e" d="M 3513 2113 
L 3513 0 
L 2938 0 
L 2938 2094 
Q 2938 2591 2744 2837 
Q 2550 3084 2163 3084 
Q 1697 3084 1428 2787 
Q 1159 2491 1159 1978 
L 1159 0 
L 581 0 
L 581 3500 
L 1159 3500 
L 1159 2956 
Q 1366 3272 1645 3428 
Q 1925 3584 2291 3584 
Q 2894 3584 3203 3211 
Q 3513 2838 3513 2113 
z
" transform="scale(0.015625)"/>
      </defs>
      <use xlink:href="#DejaVuSans-4e"/>
      <use xlink:href="#DejaVuSans-6f" x="74.804688"/>
      <use xlink:href="#DejaVuSans-72" x="135.986328"/>
      <use xlink:href="#DejaVuSans-6d" x="175.349609"/>
      <use xlink:href="#DejaVuSans-61" x="272.761719"/>
      <use xlink:href="#DejaVuSans-6c" x="334.041016"/>
      <use xlink:href="#DejaVuSans-69" x="361.824219"/>
      <use xlink:href="#DejaVuSans-7a" x="389.607422"/>
      <use xlink:href="#DejaVuSans-65" x="442.097656"/>
      <use xlink:href="#DejaVuSans-64" x="503.621094"/>
      <use xlink:href="#DejaVuSans-20" x="567.097656"/>
      <use xlink:href="#DejaVuSans-74" x="598.884766"/>
      <use xlink:href="#DejaVuSans-72" x="638.09375"/>
      <use xlink:href="#DejaVuSans-61" x="679.207031"/>
      <use xlink:href="#DejaVuSans-6a" x="740.486328"/>
      <use xlink:href="#DejaVuSans-65" x="768.269531"/>
      <use xlink:href="#DejaVuSans-63" x="829.792969"/>
      <use xlink:href="#DejaVuSans-74" x="884.773438"/>
      <use xlink:href="#DejaVuSans-6f" x="923.982422"/>
      <use xlink:href="#DejaVuSans-72" x="985.164062"/>
      <use xlink:href="#DejaVuSans-79" x="1026.277344"/>
      <use xlink:href="#DejaVuSans-20" x="1085.457031"/>
      <use xlink:href="#DejaVuSans-70" x="1117.244141"/>
      <use xlink:href="#DejaVuSans-72" x="1180.720703"/>
      <use xlink:href="#DejaVuSans-6f" x="1219.583984"/>
      <use xlink:href="#DejaVuSans-67" x="1280.765625"/>
      <use xlink:href="#DejaVuSans-72" x="1344.242188"/>
      <use xlink:href="#DejaVuSans-65" x="1383.105469"/>
      <use xlink:href="#DejaVuSans-73" x="1444.628906"/>
      <use xlink:href="#DejaVuSans-73" x="1496.728516"/>
      <use xlink:href="#DejaVuSans-69" x="1548.828125"/>
      <use xlink:href="#DejaVuSans-6f" x="1576.611328"/>
      <use xlink:href="#DejaVuSans-6e" x="1637.792969"/>
      <use xlink:href="#DejaVuSans-20" x="1701.171875"/>
      <use xlink:href="#DejaVuSans-73" x="1732.958984"/>
     </g>
    </g>
   </g>
   <g id="matplotlib.axis_2">
    <g id="ytick_1">
     <g id="line2d_8">
      <path d="M 53.31 287.510134 
L 418.53 287.510134 
" clip-path="url(#p47468e8c62)" style="fill: none; stroke: #ffffff; stroke-opacity: 0.3; stroke-linecap: round"/>
     </g>
     <g id="text_9">
      <!-- 0 -->
      <g style="fill: #262626" transform="translate(36.81125 291.689274) scale(0.11 -0.11)">
       <use xlink:href="#DejaVuSans-30"/>
      </g>
     </g>
    </g>
    <g id="ytick_2">
     <g id="line2d_9">
      <path d="M 53.31 251.528796 
L 418.53 251.528796 
" clip-path="url(#p47468e8c62)" style="fill: none; stroke: #ffffff; stroke-opacity: 0.3; stroke-linecap: round"/>
     </g>
     <g id="text_10">
      <!-- 100 -->
      <g style="fill: #262626" transform="translate(22.81375 255.707937) scale(0.11 -0.11)">
       <use xlink:href="#DejaVuSans-31"/>
       <use xlink:href="#DejaVuSans-30" x="63.623047"/>
       <use xlink:href="#DejaVuSans-30" x="127.246094"/>
      </g>
     </g>
    </g>
    <g id="ytick_3">
     <g id="line2d_10">
      <path d="M 53.31 215.547459 
L 418.53 215.547459 
" clip-path="url(#p47468e8c62)" style="fill: none; stroke: #ffffff; stroke-opacity: 0.3; stroke-linecap: round"/>
     </g>
     <g id="text_11">
      <!-- 200 -->
      <g style="fill: #262626" transform="translate(22.81375 219.726599) scale(0.11 -0.11)">
       <use xlink:href="#DejaVuSans-32"/>
       <use xlink:href="#DejaVuSans-30" x="63.623047"/>
       <use xlink:href="#DejaVuSans-30" x="127.246094"/>
      </g>
     </g>
    </g>
    <g id="ytick_4">
     <g id="line2d_11">
      <path d="M 53.31 179.566121 
L 418.53 179.566121 
" clip-path="url(#p47468e8c62)" style="fill: none; stroke: #ffffff; stroke-opacity: 0.3; stroke-linecap: round"/>
     </g>
     <g id="text_12">
      <!-- 300 -->
      <g style="fill: #262626" transform="translate(22.81375 183.745262) scale(0.11 -0.11)">
       <defs>
        <path id="DejaVuSans-33" d="M 2597 2516 
Q 3050 2419 3304 2112 
Q 3559 1806 3559 1356 
Q 3559 666 3084 287 
Q 2609 -91 1734 -91 
Q 1441 -91 1130 -33 
Q 819 25 488 141 
L 488 750 
Q 750 597 1062 519 
Q 1375 441 1716 441 
Q 2309 441 2620 675 
Q 2931 909 2931 1356 
Q 2931 1769 2642 2001 
Q 2353 2234 1838 2234 
L 1294 2234 
L 1294 2753 
L 1863 2753 
Q 2328 2753 2575 2939 
Q 2822 3125 2822 3475 
Q 2822 3834 2567 4026 
Q 2313 4219 1838 4219 
Q 1578 4219 1281 4162 
Q 984 4106 628 3988 
L 628 4550 
Q 988 4650 1302 4700 
Q 1616 4750 1894 4750 
Q 2613 4750 3031 4423 
Q 3450 4097 3450 3541 
Q 3450 3153 3228 2886 
Q 3006 2619 2597 2516 
z
" transform="scale(0.015625)"/>
       </defs>
       <use xlink:href="#DejaVuSans-33"/>
       <use xlink:href="#DejaVuSans-30" x="63.623047"/>
       <use xlink:href="#DejaVuSans-30" x="127.246094"/>
      </g>
     </g>
    </g>
    <g id="ytick_5">
     <g id="line2d_12">
      <path d="M 53.31 143.584783 
L 418.53 143.584783 
" clip-path="url(#p47468e8c62)" style="fill: none; stroke: #ffffff; stroke-opacity: 0.3; stroke-linecap: round"/>
     </g>
     <g id="text_13">
      <!-- 400 -->
      <g style="fill: #262626" transform="translate(22.81375 147.763924) scale(0.11 -0.11)">
       <use xlink:href="#DejaVuSans-34"/>
       <use xlink:href="#DejaVuSans-30" x="63.623047"/>
       <use xlink:href="#DejaVuSans-30" x="127.246094"/>
      </g>
     </g>
    </g>
    <g id="ytick_6">
     <g id="line2d_13">
      <path d="M 53.31 107.603446 
L 418.53 107.603446 
" clip-path="url(#p47468e8c62)" style="fill: none; stroke: #ffffff; stroke-opacity: 0.3; stroke-linecap: round"/>
     </g>
     <g id="text_14">
      <!-- 500 -->
      <g style="fill: #262626" transform="translate(22.81375 111.782586) scale(0.11 -0.11)">
       <defs>
        <path id="DejaVuSans-35" d="M 691 4666 
L 3169 4666 
L 3169 4134 
L 1269 4134 
L 1269 2991 
Q 1406 3038 1543 3061 
Q 1681 3084 1819 3084 
Q 2600 3084 3056 2656 
Q 3513 2228 3513 1497 
Q 3513 744 3044 326 
Q 2575 -91 1722 -91 
Q 1428 -91 1123 -41 
Q 819 9 494 109 
L 494 744 
Q 775 591 1075 516 
Q 1375 441 1709 441 
Q 2250 441 2565 725 
Q 2881 1009 2881 1497 
Q 2881 1984 2565 2268 
Q 2250 2553 1709 2553 
Q 1456 2553 1204 2497 
Q 953 2441 691 2322 
L 691 4666 
z
" transform="scale(0.015625)"/>
       </defs>
       <use xlink:href="#DejaVuSans-35"/>
       <use xlink:href="#DejaVuSans-30" x="63.623047"/>
       <use xlink:href="#DejaVuSans-30" x="127.246094"/>
      </g>
     </g>
    </g>
    <g id="ytick_7">
     <g id="line2d_14">
      <path d="M 53.31 71.622108 
L 418.53 71.622108 
" clip-path="url(#p47468e8c62)" style="fill: none; stroke: #ffffff; stroke-opacity: 0.3; stroke-linecap: round"/>
     </g>
     <g id="text_15">
      <!-- 600 -->
      <g style="fill: #262626" transform="translate(22.81375 75.801249) scale(0.11 -0.11)">
       <use xlink:href="#DejaVuSans-36"/>
       <use xlink:href="#DejaVuSans-30" x="63.623047"/>
       <use xlink:href="#DejaVuSans-30" x="127.246094"/>
      </g>
     </g>
    </g>
    <g id="text_16">
     <!-- Gp[x] in [N/m] -->
     <g style="fill: #262626" transform="translate(16.318125 210.234375) rotate(-90) scale(0.12 -0.12)">
      <defs>
       <path id="DejaVuSans-47" d="M 3809 666 
L 3809 1919 
L 2778 1919 
L 2778 2438 
L 4434 2438 
L 4434 434 
Q 4069 175 3628 42 
Q 3188 -91 2688 -91 
Q 1594 -91 976 548 
Q 359 1188 359 2328 
Q 359 3472 976 4111 
Q 1594 4750 2688 4750 
Q 3144 4750 3555 4637 
Q 3966 4525 4313 4306 
L 4313 3634 
Q 3963 3931 3569 4081 
Q 3175 4231 2741 4231 
Q 1884 4231 1454 3753 
Q 1025 3275 1025 2328 
Q 1025 1384 1454 906 
Q 1884 428 2741 428 
Q 3075 428 3337 486 
Q 3600 544 3809 666 
z
" transform="scale(0.015625)"/>
       <path id="DejaVuSans-5b" d="M 550 4863 
L 1875 4863 
L 1875 4416 
L 1125 4416 
L 1125 -397 
L 1875 -397 
L 1875 -844 
L 550 -844 
L 550 4863 
z
" transform="scale(0.015625)"/>
       <path id="DejaVuSans-78" d="M 3513 3500 
L 2247 1797 
L 3578 0 
L 2900 0 
L 1881 1375 
L 863 0 
L 184 0 
L 1544 1831 
L 300 3500 
L 978 3500 
L 1906 2253 
L 2834 3500 
L 3513 3500 
z
" transform="scale(0.015625)"/>
       <path id="DejaVuSans-5d" d="M 1947 4863 
L 1947 -844 
L 622 -844 
L 622 -397 
L 1369 -397 
L 1369 4416 
L 622 4416 
L 622 4863 
L 1947 4863 
z
" transform="scale(0.015625)"/>
       <path id="DejaVuSans-2f" d="M 1625 4666 
L 2156 4666 
L 531 -594 
L 0 -594 
L 1625 4666 
z
" transform="scale(0.015625)"/>
      </defs>
      <use xlink:href="#DejaVuSans-47"/>
      <use xlink:href="#DejaVuSans-70" x="77.490234"/>
      <use xlink:href="#DejaVuSans-5b" x="140.966797"/>
      <use xlink:href="#DejaVuSans-78" x="179.980469"/>
      <use xlink:href="#DejaVuSans-5d" x="239.160156"/>
      <use xlink:href="#DejaVuSans-20" x="278.173828"/>
      <use xlink:href="#DejaVuSans-69" x="309.960938"/>
      <use xlink:href="#DejaVuSans-6e" x="337.744141"/>
      <use xlink:href="#DejaVuSans-20" x="401.123047"/>
      <use xlink:href="#DejaVuSans-5b" x="432.910156"/>
      <use xlink:href="#DejaVuSans-4e" x="471.923828"/>
      <use xlink:href="#DejaVuSans-2f" x="546.728516"/>
      <use xlink:href="#DejaVuSans-6d" x="580.419922"/>
      <use xlink:href="#DejaVuSans-5d" x="677.832031"/>
     </g>
    </g>
   </g>
   <g id="line2d_15">
    <path d="M 69.910909 50.161141 
L 70.576276 48.741055 
L 71.241643 48.536342 
L 74.568479 48.395646 
L 118.482707 48.064797 
L 127.797847 48.224573 
L 133.120783 48.535747 
L 136.447619 48.932402 
L 139.109087 49.443198 
L 141.770556 50.20079 
L 143.766657 50.974982 
L 145.762758 51.955523 
L 147.75886 53.160459 
L 149.754961 54.597134 
L 151.751062 56.262379 
L 154.412531 58.817305 
L 157.073999 61.712473 
L 160.400834 65.702471 
L 169.715974 77.176097 
L 183.688683 93.271509 
L 187.015518 97.182188 
L 189.01162 99.108605 
L 190.342354 100.10226 
L 191.673088 100.827562 
L 193.003822 101.284852 
L 194.334556 101.503456 
L 195.665291 101.527688 
L 196.996025 101.391329 
L 198.326759 101.095554 
L 199.657493 100.608159 
L 200.988227 99.890726 
L 202.318962 98.941212 
L 206.311164 95.686487 
L 207.641898 94.964616 
L 208.972633 94.560565 
L 210.968734 94.356444 
L 212.299468 94.210179 
L 213.630202 93.769656 
L 214.295569 93.360745 
L 214.960936 92.789709 
L 215.626304 92.036529 
L 216.291671 91.090012 
L 217.622405 88.630206 
L 218.953139 85.570318 
L 221.614607 79.139482 
L 222.945342 76.534274 
L 224.276076 74.56175 
L 225.60681 73.127285 
L 227.602911 71.525933 
L 229.599013 69.935701 
L 230.929747 68.602416 
L 232.260481 66.949536 
L 234.256582 63.92791 
L 237.583418 58.605982 
L 238.914152 56.818456 
L 240.244886 55.328956 
L 241.57562 54.122645 
L 242.906355 53.157614 
L 244.902456 52.060509 
L 246.898557 51.264704 
L 249.560026 50.504264 
L 252.886861 49.853623 
L 256.213696 49.434567 
L 262.202 48.974413 
L 270.186406 48.544024 
L 277.505444 48.411331 
L 300.127925 48.129763 
L 317.427469 48.038619 
L 334.727014 48.102055 
L 335.392381 48.57369 
L 336.057748 51.487916 
L 336.723115 60.606145 
L 337.388482 79.387807 
L 338.719217 139.933819 
L 340.049951 196.545123 
L 340.715318 216.50624 
L 341.380685 231.428223 
L 342.046052 242.450855 
L 342.711419 250.604336 
L 343.376786 256.683571 
L 344.042153 261.263825 
L 344.70752 264.751138 
L 345.372888 267.430237 
L 346.038255 269.501221 
L 346.703622 271.105489 
L 347.368989 272.343473 
L 348.034356 273.286598 
L 348.699723 273.985292 
L 349.36509 274.474289 
L 350.030457 274.776058 
L 350.695824 274.902843 
L 351.361191 274.857625 
L 352.026559 274.634075 
L 352.691926 274.215469 
L 353.357293 273.57225 
L 354.02266 272.657693 
L 354.688027 271.400549 
L 355.353394 269.69266 
L 356.018761 267.36771 
L 356.684128 264.163657 
L 357.349495 259.653818 
L 358.014862 253.11532 
L 358.68023 243.268946 
L 359.345597 227.759496 
L 360.010964 202.210064 
L 360.676331 159.45639 
L 361.341698 96.136574 
L 362.007065 48.432761 
L 362.672432 81.922616 
L 363.337799 152.698188 
L 364.003166 203.868308 
L 364.668533 233.616833 
L 365.333901 250.826265 
L 365.999268 261.25167 
L 366.664635 267.905697 
L 367.330002 272.35787 
L 367.995369 275.459486 
L 368.660736 277.695127 
L 369.326103 279.353667 
L 369.99147 280.614601 
L 370.656837 281.593611 
L 371.987572 282.989455 
L 373.318306 283.913543 
L 374.64904 284.55479 
L 376.645141 285.200437 
L 379.30661 285.728769 
L 382.633445 286.113975 
L 387.291015 286.408064 
L 394.610053 286.623691 
L 401.929091 286.716477 
L 401.929091 286.716477 
" clip-path="url(#p47468e8c62)" style="fill: none; stroke: #0000ff; stroke-width: 2; stroke-linecap: round"/>
   </g>
   <g id="line2d_16">
    <path d="M 69.910909 49.353591 
L 70.576276 48.576585 
L 71.241643 48.270128 
L 72.572377 48.139033 
L 80.556783 48.04581 
L 127.797847 47.926114 
L 135.782252 48.131572 
L 140.439821 48.46636 
L 143.766657 48.908675 
L 147.093492 49.602308 
L 149.754961 50.378385 
L 152.416429 51.367135 
L 155.077898 52.564082 
L 158.404733 54.317615 
L 162.396936 56.700282 
L 167.719872 60.150865 
L 171.712075 62.981439 
L 174.373543 65.148846 
L 176.369645 67.025337 
L 178.365746 69.173427 
L 181.027214 72.457297 
L 187.015518 80.20799 
L 188.346253 81.560925 
L 189.676987 82.625565 
L 191.007721 83.352043 
L 192.338455 83.719021 
L 193.669189 83.739905 
L 194.999923 83.462292 
L 196.330658 82.960251 
L 198.992126 81.625202 
L 202.984329 79.640791 
L 206.311164 77.951719 
L 208.972633 76.322714 
L 216.957038 70.971607 
L 218.953139 69.201596 
L 220.94924 67.074344 
L 224.941443 62.546384 
L 226.937544 60.721878 
L 228.933645 59.331589 
L 231.595114 57.869914 
L 234.921949 56.014932 
L 242.240987 51.58545 
L 244.237089 50.711213 
L 246.898557 49.803056 
L 249.560026 49.124907 
L 252.221494 48.657999 
L 255.548329 48.33239 
L 260.205899 48.166039 
L 269.521038 48.134357 
L 282.82838 48.040335 
L 300.127925 47.945619 
L 334.061647 48.019685 
L 334.727014 48.179197 
L 335.392381 48.639703 
L 336.057748 49.668565 
L 336.723115 51.597556 
L 337.388482 54.766893 
L 338.05385 59.45291 
L 338.719217 65.796991 
L 339.384584 73.75892 
L 340.715318 93.488457 
L 343.376786 136.591042 
L 344.70752 154.651169 
L 346.038255 168.937051 
L 347.368989 179.455585 
L 348.034356 183.390255 
L 348.699723 186.494478 
L 349.36509 188.800276 
L 350.030457 190.329168 
L 350.695824 191.089524 
L 351.361191 191.074347 
L 352.026559 190.259114 
L 352.691926 188.599427 
L 353.357293 186.028352 
L 354.02266 182.453497 
L 354.688027 177.754151 
L 355.353394 171.779418 
L 356.018761 164.349315 
L 356.684128 155.262863 
L 357.349495 144.320748 
L 358.68023 116.432132 
L 360.676331 66.068382 
L 361.341698 53.436578 
L 362.007065 47.786091 
L 362.672432 51.662365 
L 363.337799 65.462137 
L 364.003166 86.99161 
L 365.999268 162.423263 
L 367.330002 200.65079 
L 367.995369 214.96196 
L 368.660736 226.603278 
L 369.326103 236.04674 
L 369.99147 243.71841 
L 370.656837 249.975701 
L 371.322204 255.107421 
L 371.987572 259.342519 
L 373.318306 265.803485 
L 374.64904 270.380007 
L 375.979774 273.704486 
L 377.310508 276.175749 
L 378.641242 278.05124 
L 379.971977 279.501212 
L 381.302711 280.64092 
L 382.633445 281.550117 
L 384.629546 282.600431 
L 386.625648 283.383737 
L 389.287116 284.148922 
L 392.613952 284.813928 
L 396.606154 285.349751 
L 401.929091 285.807015 
L 401.929091 285.807015 
" clip-path="url(#p47468e8c62)" style="fill: none; stroke: #ffa500; stroke-width: 2; stroke-linecap: round"/>
   </g>
   <g id="line2d_17">
    <path d="M 69.910909 48.912426 
L 70.576276 48.437386 
L 71.241643 48.184518 
L 72.572377 48.009684 
L 77.895314 47.935467 
L 124.471011 47.800349 
L 134.451518 47.923802 
L 139.774454 48.20162 
L 143.766657 48.628 
L 147.093492 49.189519 
L 150.420328 49.993809 
L 153.081796 50.856192 
L 155.743265 51.954357 
L 158.404733 53.318175 
L 161.066201 54.951777 
L 164.393037 57.314637 
L 170.381341 61.985674 
L 176.369645 66.530714 
L 183.023316 71.27558 
L 186.350151 73.389408 
L 188.346253 74.444758 
L 190.342354 75.257265 
L 192.338455 75.764359 
L 193.669189 75.909567 
L 194.999923 75.891832 
L 196.330658 75.710961 
L 198.326759 75.150553 
L 200.32286 74.291584 
L 202.984329 72.821904 
L 216.291671 64.901318 
L 220.283873 62.451513 
L 223.610709 60.114545 
L 230.929747 54.640581 
L 232.925848 53.466309 
L 235.587316 52.200299 
L 238.914152 50.918192 
L 242.906355 49.632048 
L 245.567823 48.97535 
L 248.229291 48.522922 
L 251.556127 48.20681 
L 256.213696 48.033919 
L 265.528836 47.968328 
L 294.804988 47.862809 
L 332.065546 47.873841 
L 334.061647 47.969659 
L 334.727014 48.115795 
L 335.392381 48.39181 
L 336.057748 48.858643 
L 336.723115 49.582676 
L 337.388482 50.628933 
L 338.05385 52.053958 
L 338.719217 53.898951 
L 339.384584 56.18419 
L 340.715318 62.034021 
L 342.046052 69.282694 
L 346.038255 92.79557 
L 347.368989 98.969441 
L 348.034356 101.454887 
L 348.699723 103.48266 
L 349.36509 105.018708 
L 350.030457 106.034158 
L 350.695824 106.504184 
L 351.361191 106.407143 
L 352.026559 105.724126 
L 352.691926 104.439022 
L 353.357293 102.539216 
L 354.02266 100.017135 
L 354.688027 96.872795 
L 356.018761 88.780084 
L 357.349495 78.600678 
L 360.010964 56.406413 
L 360.676331 52.068557 
L 361.341698 49.023333 
L 362.007065 47.731023 
L 362.672432 48.631715 
L 363.337799 52.028015 
L 364.003166 58.067262 
L 364.668533 66.677075 
L 365.999268 90.260305 
L 369.99147 173.716886 
L 371.322204 195.736245 
L 372.652939 213.538481 
L 373.983673 227.621085 
L 375.314407 238.661989 
L 376.645141 247.309675 
L 377.975875 254.108565 
L 379.30661 259.488781 
L 380.637344 263.780293 
L 381.968078 267.232942 
L 383.298812 270.03515 
L 384.629546 272.32921 
L 385.960281 274.223058 
L 387.291015 275.799082 
L 388.621749 277.120622 
L 390.61785 278.730109 
L 392.613952 279.99791 
L 394.610053 281.010316 
L 397.271521 282.066796 
L 399.93299 282.878358 
L 401.929091 283.368008 
L 401.929091 283.368008 
" clip-path="url(#p47468e8c62)" style="fill: none; stroke: #008000; stroke-width: 2; stroke-linecap: round"/>
   </g>
   <g id="line2d_18">
    <path d="M 362.086909 298.66575 
L 362.086909 35.78175 
" clip-path="url(#p47468e8c62)" style="fill: none; stroke-dasharray: 3.7,1.6; stroke-dashoffset: 0; stroke: #ff0000; stroke-opacity: 0.7"/>
   </g>
   <g id="patch_3">
    <path d="M 53.31 298.66575 
L 53.31 35.78175 
" style="fill: none; stroke: #ffffff; stroke-width: 1.25; stroke-linejoin: miter; stroke-linecap: square"/>
   </g>
   <g id="patch_4">
    <path d="M 418.53 298.66575 
L 418.53 35.78175 
" style="fill: none; stroke: #ffffff; stroke-width: 1.25; stroke-linejoin: miter; stroke-linecap: square"/>
   </g>
   <g id="patch_5">
    <path d="M 53.31 298.66575 
L 418.53 298.66575 
" style="fill: none; stroke: #ffffff; stroke-width: 1.25; stroke-linejoin: miter; stroke-linecap: square"/>
   </g>
   <g id="patch_6">
    <path d="M 53.31 35.78175 
L 418.53 35.78175 
" style="fill: none; stroke: #ffffff; stroke-width: 1.25; stroke-linejoin: miter; stroke-linecap: square"/>
   </g>
   <g id="text_17">
    <!-- Stiffness ($G_P$) using combined uncertainty -->
    <g style="fill: #262626" transform="translate(110.16 16.32) scale(0.12 -0.12)">
     <defs>
      <path id="DejaVuSans-53" d="M 3425 4513 
L 3425 3897 
Q 3066 4069 2747 4153 
Q 2428 4238 2131 4238 
Q 1616 4238 1336 4038 
Q 1056 3838 1056 3469 
Q 1056 3159 1242 3001 
Q 1428 2844 1947 2747 
L 2328 2669 
Q 3034 2534 3370 2195 
Q 3706 1856 3706 1288 
Q 3706 609 3251 259 
Q 2797 -91 1919 -91 
Q 1588 -91 1214 -16 
Q 841 59 441 206 
L 441 856 
Q 825 641 1194 531 
Q 1563 422 1919 422 
Q 2459 422 2753 634 
Q 3047 847 3047 1241 
Q 3047 1584 2836 1778 
Q 2625 1972 2144 2069 
L 1759 2144 
Q 1053 2284 737 2584 
Q 422 2884 422 3419 
Q 422 4038 858 4394 
Q 1294 4750 2059 4750 
Q 2388 4750 2728 4690 
Q 3069 4631 3425 4513 
z
" transform="scale(0.015625)"/>
      <path id="DejaVuSans-66" d="M 2375 4863 
L 2375 4384 
L 1825 4384 
Q 1516 4384 1395 4259 
Q 1275 4134 1275 3809 
L 1275 3500 
L 2222 3500 
L 2222 3053 
L 1275 3053 
L 1275 0 
L 697 0 
L 697 3053 
L 147 3053 
L 147 3500 
L 697 3500 
L 697 3744 
Q 697 4328 969 4595 
Q 1241 4863 1831 4863 
L 2375 4863 
z
" transform="scale(0.015625)"/>
      <path id="DejaVuSans-28" d="M 1984 4856 
Q 1566 4138 1362 3434 
Q 1159 2731 1159 2009 
Q 1159 1288 1364 580 
Q 1569 -128 1984 -844 
L 1484 -844 
Q 1016 -109 783 600 
Q 550 1309 550 2009 
Q 550 2706 781 3412 
Q 1013 4119 1484 4856 
L 1984 4856 
z
" transform="scale(0.015625)"/>
      <path id="DejaVuSans-Oblique-47" d="M 3494 697 
L 3738 1919 
L 2700 1919 
L 2797 2438 
L 4453 2438 
L 4050 384 
Q 3634 156 3143 32 
Q 2653 -91 2156 -91 
Q 1278 -91 783 396 
Q 288 884 288 1753 
Q 288 2475 589 3126 
Q 891 3778 1422 4213 
Q 1756 4484 2153 4617 
Q 2550 4750 3034 4750 
Q 3472 4750 3873 4639 
Q 4275 4528 4641 4306 
L 4513 3634 
Q 4231 3928 3853 4083 
Q 3475 4238 3047 4238 
Q 2550 4238 2172 4048 
Q 1794 3859 1497 3463 
Q 1244 3125 1098 2667 
Q 953 2209 953 1734 
Q 953 1081 1287 751 
Q 1622 422 2284 422 
Q 2616 422 2925 492 
Q 3234 563 3494 697 
z
" transform="scale(0.015625)"/>
      <path id="DejaVuSans-Oblique-50" d="M 1081 4666 
L 2541 4666 
Q 3178 4666 3512 4369 
Q 3847 4072 3847 3500 
Q 3847 2731 3353 2303 
Q 2859 1875 1966 1875 
L 1172 1875 
L 806 0 
L 172 0 
L 1081 4666 
z
M 1613 4147 
L 1275 2394 
L 2069 2394 
Q 2606 2394 2893 2669 
Q 3181 2944 3181 3456 
Q 3181 3784 2986 3965 
Q 2791 4147 2438 4147 
L 1613 4147 
z
" transform="scale(0.015625)"/>
      <path id="DejaVuSans-29" d="M 513 4856 
L 1013 4856 
Q 1481 4119 1714 3412 
Q 1947 2706 1947 2009 
Q 1947 1309 1714 600 
Q 1481 -109 1013 -844 
L 513 -844 
Q 928 -128 1133 580 
Q 1338 1288 1338 2009 
Q 1338 2731 1133 3434 
Q 928 4138 513 4856 
z
" transform="scale(0.015625)"/>
      <path id="DejaVuSans-75" d="M 544 1381 
L 544 3500 
L 1119 3500 
L 1119 1403 
Q 1119 906 1312 657 
Q 1506 409 1894 409 
Q 2359 409 2629 706 
Q 2900 1003 2900 1516 
L 2900 3500 
L 3475 3500 
L 3475 0 
L 2900 0 
L 2900 538 
Q 2691 219 2414 64 
Q 2138 -91 1772 -91 
Q 1169 -91 856 284 
Q 544 659 544 1381 
z
M 1991 3584 
L 1991 3584 
z
" transform="scale(0.015625)"/>
      <path id="DejaVuSans-62" d="M 3116 1747 
Q 3116 2381 2855 2742 
Q 2594 3103 2138 3103 
Q 1681 3103 1420 2742 
Q 1159 2381 1159 1747 
Q 1159 1113 1420 752 
Q 1681 391 2138 391 
Q 2594 391 2855 752 
Q 3116 1113 3116 1747 
z
M 1159 2969 
Q 1341 3281 1617 3432 
Q 1894 3584 2278 3584 
Q 2916 3584 3314 3078 
Q 3713 2572 3713 1747 
Q 3713 922 3314 415 
Q 2916 -91 2278 -91 
Q 1894 -91 1617 61 
Q 1341 213 1159 525 
L 1159 0 
L 581 0 
L 581 4863 
L 1159 4863 
L 1159 2969 
z
" transform="scale(0.015625)"/>
     </defs>
     <use xlink:href="#DejaVuSans-53" transform="translate(0 0.015625)"/>
     <use xlink:href="#DejaVuSans-74" transform="translate(63.476562 0.015625)"/>
     <use xlink:href="#DejaVuSans-69" transform="translate(102.685547 0.015625)"/>
     <use xlink:href="#DejaVuSans-66" transform="translate(130.46875 0.015625)"/>
     <use xlink:href="#DejaVuSans-66" transform="translate(165.673828 0.015625)"/>
     <use xlink:href="#DejaVuSans-6e" transform="translate(200.878906 0.015625)"/>
     <use xlink:href="#DejaVuSans-65" transform="translate(264.257812 0.015625)"/>
     <use xlink:href="#DejaVuSans-73" transform="translate(325.78125 0.015625)"/>
     <use xlink:href="#DejaVuSans-73" transform="translate(377.880859 0.015625)"/>
     <use xlink:href="#DejaVuSans-20" transform="translate(429.980469 0.015625)"/>
     <use xlink:href="#DejaVuSans-28" transform="translate(461.767578 0.015625)"/>
     <use xlink:href="#DejaVuSans-Oblique-47" transform="translate(500.78125 0.015625)"/>
     <use xlink:href="#DejaVuSans-Oblique-50" transform="translate(578.271484 -16.390625) scale(0.7)"/>
     <use xlink:href="#DejaVuSans-29" transform="translate(623.217773 0.015625)"/>
     <use xlink:href="#DejaVuSans-20" transform="translate(662.231445 0.015625)"/>
     <use xlink:href="#DejaVuSans-75" transform="translate(694.018555 0.015625)"/>
     <use xlink:href="#DejaVuSans-73" transform="translate(757.397461 0.015625)"/>
     <use xlink:href="#DejaVuSans-69" transform="translate(809.49707 0.015625)"/>
     <use xlink:href="#DejaVuSans-6e" transform="translate(837.280273 0.015625)"/>
     <use xlink:href="#DejaVuSans-67" transform="translate(900.65918 0.015625)"/>
     <use xlink:href="#DejaVuSans-20" transform="translate(964.135742 0.015625)"/>
     <use xlink:href="#DejaVuSans-63" transform="translate(995.922852 0.015625)"/>
     <use xlink:href="#DejaVuSans-6f" transform="translate(1050.90332 0.015625)"/>
     <use xlink:href="#DejaVuSans-6d" transform="translate(1112.084961 0.015625)"/>
     <use xlink:href="#DejaVuSans-62" transform="translate(1209.49707 0.015625)"/>
     <use xlink:href="#DejaVuSans-69" transform="translate(1272.973633 0.015625)"/>
     <use xlink:href="#DejaVuSans-6e" transform="translate(1300.756836 0.015625)"/>
     <use xlink:href="#DejaVuSans-65" transform="translate(1364.135742 0.015625)"/>
     <use xlink:href="#DejaVuSans-64" transform="translate(1425.65918 0.015625)"/>
     <use xlink:href="#DejaVuSans-20" transform="translate(1489.135742 0.015625)"/>
     <use xlink:href="#DejaVuSans-75" transform="translate(1520.922852 0.015625)"/>
     <use xlink:href="#DejaVuSans-6e" transform="translate(1584.301758 0.015625)"/>
     <use xlink:href="#DejaVuSans-63" transform="translate(1647.680664 0.015625)"/>
     <use xlink:href="#DejaVuSans-65" transform="translate(1702.661133 0.015625)"/>
     <use xlink:href="#DejaVuSans-72" transform="translate(1764.18457 0.015625)"/>
     <use xlink:href="#DejaVuSans-74" transform="translate(1805.297852 0.015625)"/>
     <use xlink:href="#DejaVuSans-61" transform="translate(1844.506836 0.015625)"/>
     <use xlink:href="#DejaVuSans-69" transform="translate(1905.786133 0.015625)"/>
     <use xlink:href="#DejaVuSans-6e" transform="translate(1933.569336 0.015625)"/>
     <use xlink:href="#DejaVuSans-74" transform="translate(1996.948242 0.015625)"/>
     <use xlink:href="#DejaVuSans-79" transform="translate(2036.157227 0.015625)"/>
    </g>
    <!-- (after via-point) -->
    <g style="fill: #262626" transform="translate(188.775 29.78175) scale(0.12 -0.12)">
     <defs>
      <path id="DejaVuSans-76" d="M 191 3500 
L 800 3500 
L 1894 563 
L 2988 3500 
L 3597 3500 
L 2284 0 
L 1503 0 
L 191 3500 
z
" transform="scale(0.015625)"/>
      <path id="DejaVuSans-2d" d="M 313 2009 
L 1997 2009 
L 1997 1497 
L 313 1497 
L 313 2009 
z
" transform="scale(0.015625)"/>
     </defs>
     <use xlink:href="#DejaVuSans-28"/>
     <use xlink:href="#DejaVuSans-61" x="39.013672"/>
     <use xlink:href="#DejaVuSans-66" x="100.292969"/>
     <use xlink:href="#DejaVuSans-74" x="133.748047"/>
     <use xlink:href="#DejaVuSans-65" x="172.957031"/>
     <use xlink:href="#DejaVuSans-72" x="234.480469"/>
     <use xlink:href="#DejaVuSans-20" x="275.59375"/>
     <use xlink:href="#DejaVuSans-76" x="307.380859"/>
     <use xlink:href="#DejaVuSans-69" x="366.560547"/>
     <use xlink:href="#DejaVuSans-61" x="394.34375"/>
     <use xlink:href="#DejaVuSans-2d" x="455.623047"/>
     <use xlink:href="#DejaVuSans-70" x="491.707031"/>
     <use xlink:href="#DejaVuSans-6f" x="555.183594"/>
     <use xlink:href="#DejaVuSans-69" x="616.365234"/>
     <use xlink:href="#DejaVuSans-6e" x="644.148438"/>
     <use xlink:href="#DejaVuSans-74" x="707.527344"/>
     <use xlink:href="#DejaVuSans-29" x="746.736328"/>
    </g>
   </g>
   <g id="legend_1">
    <g id="patch_7">
     <path d="M 61.01 293.16575 
L 132.968906 293.16575 
Q 135.168906 293.16575 135.168906 290.96575 
L 135.168906 243.627937 
Q 135.168906 241.427937 132.968906 241.427937 
L 61.01 241.427937 
Q 58.81 241.427937 58.81 243.627937 
L 58.81 290.96575 
Q 58.81 293.16575 61.01 293.16575 
z
" style="fill: #eaeaf2; opacity: 0.8; stroke: #cccccc; stroke-linejoin: miter"/>
    </g>
    <g id="line2d_19">
     <path d="M 63.21 250.336219 
L 74.21 250.336219 
L 85.21 250.336219 
" style="fill: none; stroke: #0000ff; stroke-width: 2; stroke-linecap: round"/>
    </g>
    <g id="text_18">
     <!-- l = 0.1 -->
     <g style="fill: #262626" transform="translate(94.01 254.186219) scale(0.11 -0.11)">
      <defs>
       <path id="DejaVuSans-3d" d="M 678 2906 
L 4684 2906 
L 4684 2381 
L 678 2381 
L 678 2906 
z
M 678 1631 
L 4684 1631 
L 4684 1100 
L 678 1100 
L 678 1631 
z
" transform="scale(0.015625)"/>
      </defs>
      <use xlink:href="#DejaVuSans-6c"/>
      <use xlink:href="#DejaVuSans-20" x="27.783203"/>
      <use xlink:href="#DejaVuSans-3d" x="59.570312"/>
      <use xlink:href="#DejaVuSans-20" x="143.359375"/>
      <use xlink:href="#DejaVuSans-30" x="175.146484"/>
      <use xlink:href="#DejaVuSans-2e" x="238.769531"/>
      <use xlink:href="#DejaVuSans-31" x="270.556641"/>
     </g>
    </g>
    <g id="line2d_20">
     <path d="M 63.21 266.482156 
L 74.21 266.482156 
L 85.21 266.482156 
" style="fill: none; stroke: #ffa500; stroke-width: 2; stroke-linecap: round"/>
    </g>
    <g id="text_19">
     <!-- l = 0.2 -->
     <g style="fill: #262626" transform="translate(94.01 270.332156) scale(0.11 -0.11)">
      <use xlink:href="#DejaVuSans-6c"/>
      <use xlink:href="#DejaVuSans-20" x="27.783203"/>
      <use xlink:href="#DejaVuSans-3d" x="59.570312"/>
      <use xlink:href="#DejaVuSans-20" x="143.359375"/>
      <use xlink:href="#DejaVuSans-30" x="175.146484"/>
      <use xlink:href="#DejaVuSans-2e" x="238.769531"/>
      <use xlink:href="#DejaVuSans-32" x="270.556641"/>
     </g>
    </g>
    <g id="line2d_21">
     <path d="M 63.21 282.628094 
L 74.21 282.628094 
L 85.21 282.628094 
" style="fill: none; stroke: #008000; stroke-width: 2; stroke-linecap: round"/>
    </g>
    <g id="text_20">
     <!-- l = 0.3 -->
     <g style="fill: #262626" transform="translate(94.01 286.478094) scale(0.11 -0.11)">
      <use xlink:href="#DejaVuSans-6c"/>
      <use xlink:href="#DejaVuSans-20" x="27.783203"/>
      <use xlink:href="#DejaVuSans-3d" x="59.570312"/>
      <use xlink:href="#DejaVuSans-20" x="143.359375"/>
      <use xlink:href="#DejaVuSans-30" x="175.146484"/>
      <use xlink:href="#DejaVuSans-2e" x="238.769531"/>
      <use xlink:href="#DejaVuSans-33" x="270.556641"/>
     </g>
    </g>
   </g>
  </g>
  <g id="axes_2">
   <g id="patch_8">
    <path d="M 478.83 298.66575 
L 844.05 298.66575 
L 844.05 35.78175 
L 478.83 35.78175 
z
" style="fill: #eaeaf2"/>
   </g>
   <g id="matplotlib.axis_3">
    <g id="xtick_8">
     <g id="line2d_22">
      <path d="M 495.430909 298.66575 
L 495.430909 35.78175 
" clip-path="url(#p228a332db0)" style="fill: none; stroke: #ffffff; stroke-opacity: 0.3; stroke-linecap: round"/>
     </g>
     <g id="text_21">
      <!-- 0.0 -->
      <g style="fill: #262626" transform="translate(486.68419 316.524031) scale(0.11 -0.11)">
       <use xlink:href="#DejaVuSans-30"/>
       <use xlink:href="#DejaVuSans-2e" x="63.623047"/>
       <use xlink:href="#DejaVuSans-30" x="95.410156"/>
      </g>
     </g>
    </g>
    <g id="xtick_9">
     <g id="line2d_23">
      <path d="M 548.553818 298.66575 
L 548.553818 35.78175 
" clip-path="url(#p228a332db0)" style="fill: none; stroke: #ffffff; stroke-opacity: 0.3; stroke-linecap: round"/>
     </g>
     <g id="text_22">
      <!-- 0.2 -->
      <g style="fill: #262626" transform="translate(539.807099 316.524031) scale(0.11 -0.11)">
       <use xlink:href="#DejaVuSans-30"/>
       <use xlink:href="#DejaVuSans-2e" x="63.623047"/>
       <use xlink:href="#DejaVuSans-32" x="95.410156"/>
      </g>
     </g>
    </g>
    <g id="xtick_10">
     <g id="line2d_24">
      <path d="M 601.676727 298.66575 
L 601.676727 35.78175 
" clip-path="url(#p228a332db0)" style="fill: none; stroke: #ffffff; stroke-opacity: 0.3; stroke-linecap: round"/>
     </g>
     <g id="text_23">
      <!-- 0.4 -->
      <g style="fill: #262626" transform="translate(592.930009 316.524031) scale(0.11 -0.11)">
       <use xlink:href="#DejaVuSans-30"/>
       <use xlink:href="#DejaVuSans-2e" x="63.623047"/>
       <use xlink:href="#DejaVuSans-34" x="95.410156"/>
      </g>
     </g>
    </g>
    <g id="xtick_11">
     <g id="line2d_25">
      <path d="M 654.799636 298.66575 
L 654.799636 35.78175 
" clip-path="url(#p228a332db0)" style="fill: none; stroke: #ffffff; stroke-opacity: 0.3; stroke-linecap: round"/>
     </g>
     <g id="text_24">
      <!-- 0.6 -->
      <g style="fill: #262626" transform="translate(646.052918 316.524031) scale(0.11 -0.11)">
       <use xlink:href="#DejaVuSans-30"/>
       <use xlink:href="#DejaVuSans-2e" x="63.623047"/>
       <use xlink:href="#DejaVuSans-36" x="95.410156"/>
      </g>
     </g>
    </g>
    <g id="xtick_12">
     <g id="line2d_26">
      <path d="M 707.922545 298.66575 
L 707.922545 35.78175 
" clip-path="url(#p228a332db0)" style="fill: none; stroke: #ffffff; stroke-opacity: 0.3; stroke-linecap: round"/>
     </g>
     <g id="text_25">
      <!-- 0.8 -->
      <g style="fill: #262626" transform="translate(699.175827 316.524031) scale(0.11 -0.11)">
       <use xlink:href="#DejaVuSans-30"/>
       <use xlink:href="#DejaVuSans-2e" x="63.623047"/>
       <use xlink:href="#DejaVuSans-38" x="95.410156"/>
      </g>
     </g>
    </g>
    <g id="xtick_13">
     <g id="line2d_27">
      <path d="M 761.045455 298.66575 
L 761.045455 35.78175 
" clip-path="url(#p228a332db0)" style="fill: none; stroke: #ffffff; stroke-opacity: 0.3; stroke-linecap: round"/>
     </g>
     <g id="text_26">
      <!-- 1.0 -->
      <g style="fill: #262626" transform="translate(752.298736 316.524031) scale(0.11 -0.11)">
       <use xlink:href="#DejaVuSans-31"/>
       <use xlink:href="#DejaVuSans-2e" x="63.623047"/>
       <use xlink:href="#DejaVuSans-30" x="95.410156"/>
      </g>
     </g>
    </g>
    <g id="xtick_14">
     <g id="line2d_28">
      <path d="M 814.168364 298.66575 
L 814.168364 35.78175 
" clip-path="url(#p228a332db0)" style="fill: none; stroke: #ffffff; stroke-opacity: 0.3; stroke-linecap: round"/>
     </g>
     <g id="text_27">
      <!-- 1.2 -->
      <g style="fill: #262626" transform="translate(805.421645 316.524031) scale(0.11 -0.11)">
       <use xlink:href="#DejaVuSans-31"/>
       <use xlink:href="#DejaVuSans-2e" x="63.623047"/>
       <use xlink:href="#DejaVuSans-32" x="95.410156"/>
      </g>
     </g>
    </g>
    <g id="text_28">
     <!-- Normalized trajectory progression s -->
     <g style="fill: #262626" transform="translate(554.33625 331.929812) scale(0.12 -0.12)">
      <use xlink:href="#DejaVuSans-4e"/>
      <use xlink:href="#DejaVuSans-6f" x="74.804688"/>
      <use xlink:href="#DejaVuSans-72" x="135.986328"/>
      <use xlink:href="#DejaVuSans-6d" x="175.349609"/>
      <use xlink:href="#DejaVuSans-61" x="272.761719"/>
      <use xlink:href="#DejaVuSans-6c" x="334.041016"/>
      <use xlink:href="#DejaVuSans-69" x="361.824219"/>
      <use xlink:href="#DejaVuSans-7a" x="389.607422"/>
      <use xlink:href="#DejaVuSans-65" x="442.097656"/>
      <use xlink:href="#DejaVuSans-64" x="503.621094"/>
      <use xlink:href="#DejaVuSans-20" x="567.097656"/>
      <use xlink:href="#DejaVuSans-74" x="598.884766"/>
      <use xlink:href="#DejaVuSans-72" x="638.09375"/>
      <use xlink:href="#DejaVuSans-61" x="679.207031"/>
      <use xlink:href="#DejaVuSans-6a" x="740.486328"/>
      <use xlink:href="#DejaVuSans-65" x="768.269531"/>
      <use xlink:href="#DejaVuSans-63" x="829.792969"/>
      <use xlink:href="#DejaVuSans-74" x="884.773438"/>
      <use xlink:href="#DejaVuSans-6f" x="923.982422"/>
      <use xlink:href="#DejaVuSans-72" x="985.164062"/>
      <use xlink:href="#DejaVuSans-79" x="1026.277344"/>
      <use xlink:href="#DejaVuSans-20" x="1085.457031"/>
      <use xlink:href="#DejaVuSans-70" x="1117.244141"/>
      <use xlink:href="#DejaVuSans-72" x="1180.720703"/>
      <use xlink:href="#DejaVuSans-6f" x="1219.583984"/>
      <use xlink:href="#DejaVuSans-67" x="1280.765625"/>
      <use xlink:href="#DejaVuSans-72" x="1344.242188"/>
      <use xlink:href="#DejaVuSans-65" x="1383.105469"/>
      <use xlink:href="#DejaVuSans-73" x="1444.628906"/>
      <use xlink:href="#DejaVuSans-73" x="1496.728516"/>
      <use xlink:href="#DejaVuSans-69" x="1548.828125"/>
      <use xlink:href="#DejaVuSans-6f" x="1576.611328"/>
      <use xlink:href="#DejaVuSans-6e" x="1637.792969"/>
      <use xlink:href="#DejaVuSans-20" x="1701.171875"/>
      <use xlink:href="#DejaVuSans-73" x="1732.958984"/>
     </g>
    </g>
   </g>
   <g id="matplotlib.axis_4">
    <g id="ytick_8">
     <g id="line2d_29">
      <path d="M 478.83 286.717272 
L 844.05 286.717272 
" clip-path="url(#p228a332db0)" style="fill: none; stroke: #ffffff; stroke-opacity: 0.3; stroke-linecap: round"/>
     </g>
     <g id="text_29">
      <!-- 0 -->
      <g style="fill: #262626" transform="translate(462.33125 290.896412) scale(0.11 -0.11)">
       <use xlink:href="#DejaVuSans-30"/>
      </g>
     </g>
    </g>
    <g id="ytick_9">
     <g id="line2d_30">
      <path d="M 478.83 250.835444 
L 844.05 250.835444 
" clip-path="url(#p228a332db0)" style="fill: none; stroke: #ffffff; stroke-opacity: 0.3; stroke-linecap: round"/>
     </g>
     <g id="text_30">
      <!-- 100 -->
      <g style="fill: #262626" transform="translate(448.33375 255.014585) scale(0.11 -0.11)">
       <use xlink:href="#DejaVuSans-31"/>
       <use xlink:href="#DejaVuSans-30" x="63.623047"/>
       <use xlink:href="#DejaVuSans-30" x="127.246094"/>
      </g>
     </g>
    </g>
    <g id="ytick_10">
     <g id="line2d_31">
      <path d="M 478.83 214.953617 
L 844.05 214.953617 
" clip-path="url(#p228a332db0)" style="fill: none; stroke: #ffffff; stroke-opacity: 0.3; stroke-linecap: round"/>
     </g>
     <g id="text_31">
      <!-- 200 -->
      <g style="fill: #262626" transform="translate(448.33375 219.132758) scale(0.11 -0.11)">
       <use xlink:href="#DejaVuSans-32"/>
       <use xlink:href="#DejaVuSans-30" x="63.623047"/>
       <use xlink:href="#DejaVuSans-30" x="127.246094"/>
      </g>
     </g>
    </g>
    <g id="ytick_11">
     <g id="line2d_32">
      <path d="M 478.83 179.07179 
L 844.05 179.07179 
" clip-path="url(#p228a332db0)" style="fill: none; stroke: #ffffff; stroke-opacity: 0.3; stroke-linecap: round"/>
     </g>
     <g id="text_32">
      <!-- 300 -->
      <g style="fill: #262626" transform="translate(448.33375 183.25093) scale(0.11 -0.11)">
       <use xlink:href="#DejaVuSans-33"/>
       <use xlink:href="#DejaVuSans-30" x="63.623047"/>
       <use xlink:href="#DejaVuSans-30" x="127.246094"/>
      </g>
     </g>
    </g>
    <g id="ytick_12">
     <g id="line2d_33">
      <path d="M 478.83 143.189962 
L 844.05 143.189962 
" clip-path="url(#p228a332db0)" style="fill: none; stroke: #ffffff; stroke-opacity: 0.3; stroke-linecap: round"/>
     </g>
     <g id="text_33">
      <!-- 400 -->
      <g style="fill: #262626" transform="translate(448.33375 147.369103) scale(0.11 -0.11)">
       <use xlink:href="#DejaVuSans-34"/>
       <use xlink:href="#DejaVuSans-30" x="63.623047"/>
       <use xlink:href="#DejaVuSans-30" x="127.246094"/>
      </g>
     </g>
    </g>
    <g id="ytick_13">
     <g id="line2d_34">
      <path d="M 478.83 107.308135 
L 844.05 107.308135 
" clip-path="url(#p228a332db0)" style="fill: none; stroke: #ffffff; stroke-opacity: 0.3; stroke-linecap: round"/>
     </g>
     <g id="text_34">
      <!-- 500 -->
      <g style="fill: #262626" transform="translate(448.33375 111.487276) scale(0.11 -0.11)">
       <use xlink:href="#DejaVuSans-35"/>
       <use xlink:href="#DejaVuSans-30" x="63.623047"/>
       <use xlink:href="#DejaVuSans-30" x="127.246094"/>
      </g>
     </g>
    </g>
    <g id="ytick_14">
     <g id="line2d_35">
      <path d="M 478.83 71.426308 
L 844.05 71.426308 
" clip-path="url(#p228a332db0)" style="fill: none; stroke: #ffffff; stroke-opacity: 0.3; stroke-linecap: round"/>
     </g>
     <g id="text_35">
      <!-- 600 -->
      <g style="fill: #262626" transform="translate(448.33375 75.605448) scale(0.11 -0.11)">
       <use xlink:href="#DejaVuSans-36"/>
       <use xlink:href="#DejaVuSans-30" x="63.623047"/>
       <use xlink:href="#DejaVuSans-30" x="127.246094"/>
      </g>
     </g>
    </g>
    <g id="text_36">
     <!-- Gp[x] in [N/m] -->
     <g style="fill: #262626" transform="translate(441.838125 210.234375) rotate(-90) scale(0.12 -0.12)">
      <use xlink:href="#DejaVuSans-47"/>
      <use xlink:href="#DejaVuSans-70" x="77.490234"/>
      <use xlink:href="#DejaVuSans-5b" x="140.966797"/>
      <use xlink:href="#DejaVuSans-78" x="179.980469"/>
      <use xlink:href="#DejaVuSans-5d" x="239.160156"/>
      <use xlink:href="#DejaVuSans-20" x="278.173828"/>
      <use xlink:href="#DejaVuSans-69" x="309.960938"/>
      <use xlink:href="#DejaVuSans-6e" x="337.744141"/>
      <use xlink:href="#DejaVuSans-20" x="401.123047"/>
      <use xlink:href="#DejaVuSans-5b" x="432.910156"/>
      <use xlink:href="#DejaVuSans-4e" x="471.923828"/>
      <use xlink:href="#DejaVuSans-2f" x="546.728516"/>
      <use xlink:href="#DejaVuSans-6d" x="580.419922"/>
      <use xlink:href="#DejaVuSans-5d" x="677.832031"/>
     </g>
    </g>
   </g>
   <g id="line2d_36">
    <path d="M 495.430909 50.161634 
L 496.096276 48.739156 
L 496.761643 48.535902 
L 500.088479 48.394821 
L 544.668074 48.070099 
L 553.983214 48.249308 
L 558.640783 48.534268 
L 561.967619 48.929159 
L 564.629087 49.438205 
L 567.290556 50.193041 
L 569.286657 50.964325 
L 571.282758 51.941571 
L 573.27886 53.14239 
L 575.274961 54.574218 
L 577.271062 56.233795 
L 579.932531 58.780178 
L 582.593999 61.665642 
L 585.920834 65.642383 
L 595.235974 77.077894 
L 609.208683 93.11998 
L 612.535518 97.017971 
L 614.53162 98.93821 
L 615.862354 99.928691 
L 617.193088 100.651732 
L 618.523822 101.107609 
L 619.854556 101.325603 
L 621.185291 101.349848 
L 622.516025 101.214024 
L 623.846759 100.919263 
L 625.177493 100.433504 
L 626.508227 99.718556 
L 627.838962 98.772088 
L 631.831164 95.528131 
L 633.161898 94.808618 
L 634.492633 94.405867 
L 636.488734 94.20236 
L 637.819468 94.05652 
L 639.150202 93.617393 
L 639.815569 93.209791 
L 640.480936 92.640596 
L 641.146304 91.889869 
L 642.477038 89.810343 
L 643.807772 87.026235 
L 647.799974 77.659422 
L 649.130709 75.378558 
L 650.461443 73.701927 
L 651.792177 72.466015 
L 655.78438 69.23372 
L 657.115114 67.749829 
L 658.445848 65.94217 
L 660.441949 62.783726 
L 663.103418 58.568894 
L 664.434152 56.787371 
L 665.764886 55.302849 
L 667.09562 54.100595 
L 668.426355 53.138912 
L 670.422456 52.045586 
L 672.418557 51.252539 
L 675.080026 50.494878 
L 678.406861 49.846589 
L 681.733696 49.429098 
L 687.722 48.970543 
L 695.706406 48.542062 
L 703.025444 48.409953 
L 725.647925 48.129728 
L 743.612837 48.037553 
L 760.247014 48.102479 
L 760.912381 48.579981 
L 761.577748 51.318444 
L 762.243115 58.758638 
L 762.908482 72.225697 
L 764.239217 112.495221 
L 765.569951 155.679394 
L 766.235318 184.843409 
L 766.900685 259.309654 
L 767.566052 285.916488 
L 768.231419 286.638433 
L 773.554356 286.695412 
L 784.865597 286.649947 
L 785.530964 284.006177 
L 786.196331 94.518593 
L 786.861698 51.917522 
L 787.527065 47.785512 
L 788.192432 50.141465 
L 788.857799 79.603767 
L 789.523166 285.518313 
L 790.188533 286.659828 
L 795.51147 286.71002 
L 827.449091 286.716477 
L 827.449091 286.716477 
" clip-path="url(#p228a332db0)" style="fill: none; stroke: #0000ff; stroke-width: 2; stroke-linecap: round"/>
   </g>
   <g id="line2d_37">
    <path d="M 495.430909 49.353934 
L 496.096276 48.579524 
L 496.761643 48.271551 
L 498.092377 48.145054 
L 505.411416 48.049956 
L 522.71096 47.88971 
L 536.683669 47.864291 
L 559.30615 48.056627 
L 564.629087 48.342938 
L 568.62129 48.802495 
L 571.948125 49.436564 
L 575.274961 50.375741 
L 578.601796 51.639423 
L 581.928632 53.221077 
L 585.255467 55.062148 
L 589.913037 57.933196 
L 595.235974 61.480511 
L 598.562809 63.973519 
L 601.224278 66.311644 
L 603.220379 68.358588 
L 605.21648 70.685736 
L 607.877949 74.141526 
L 611.870151 79.342925 
L 613.200885 80.808845 
L 614.53162 82.01983 
L 615.862354 82.917688 
L 617.193088 83.463327 
L 618.523822 83.65212 
L 619.854556 83.516397 
L 621.185291 83.117666 
L 623.181392 82.207074 
L 629.169696 79.220159 
L 631.831164 77.852692 
L 634.492633 76.229062 
L 642.477038 70.895307 
L 644.473139 69.130984 
L 646.46924 67.010736 
L 650.461443 62.497969 
L 652.457544 60.679429 
L 654.453645 59.293734 
L 657.115114 57.83675 
L 660.441949 55.987782 
L 667.760987 51.57325 
L 669.757089 50.701931 
L 672.418557 49.796792 
L 675.080026 49.121135 
L 677.741494 48.656037 
L 681.068329 48.331761 
L 685.725899 48.166092 
L 695.041038 48.134617 
L 709.013747 48.033281 
L 726.313292 47.946166 
L 759.581647 48.02086 
L 760.247014 48.181505 
L 760.912381 48.642268 
L 761.577748 49.635167 
L 762.243115 51.385467 
L 762.908482 54.054589 
L 763.57385 57.70644 
L 764.239217 62.298254 
L 765.569951 73.690325 
L 768.896786 104.87323 
L 770.22752 114.871537 
L 771.558255 122.718188 
L 772.888989 128.879097 
L 776.215824 143.17825 
L 776.881191 144.857238 
L 777.546559 144.782296 
L 778.211926 142.303674 
L 778.877293 137.105593 
L 779.54266 129.359877 
L 780.873394 109.255464 
L 782.204128 89.222645 
L 783.534862 72.795567 
L 784.865597 59.977926 
L 785.530964 55.01394 
L 786.196331 51.209734 
L 786.861698 48.743397 
L 787.527065 47.742954 
L 788.192432 48.397305 
L 788.857799 50.668704 
L 789.523166 54.601946 
L 790.188533 60.41068 
L 790.853901 69.81153 
L 791.519268 95.632634 
L 792.850002 277.149012 
L 793.515369 286.302794 
L 794.180736 286.64011 
L 800.834407 286.699621 
L 827.449091 286.715489 
L 827.449091 286.715489 
" clip-path="url(#p228a332db0)" style="fill: none; stroke: #ffa500; stroke-width: 2; stroke-linecap: round"/>
   </g>
   <g id="line2d_38">
    <path d="M 495.430909 48.91505 
L 496.096276 48.440097 
L 496.761643 48.186605 
L 498.092377 48.011228 
L 503.415314 47.937107 
L 549.325644 47.8009 
L 560.636885 47.946248 
L 565.294454 48.203038 
L 569.286657 48.628532 
L 572.613492 49.18645 
L 575.940328 49.986696 
L 578.601796 50.84829 
L 581.263265 51.942711 
L 583.924733 53.30186 
L 586.586201 54.928164 
L 589.913037 57.282636 
L 595.901341 61.940683 
L 601.889645 66.470638 
L 608.543316 71.200473 
L 611.870151 73.305449 
L 613.866253 74.35743 
L 615.862354 75.167547 
L 617.858455 75.672628 
L 619.189189 75.81708 
L 620.519923 75.799727 
L 621.850658 75.619606 
L 623.846759 75.061266 
L 625.84286 74.205261 
L 628.504329 72.740336 
L 641.811671 64.843557 
L 645.803873 62.403035 
L 649.130709 60.07434 
L 656.449747 54.618497 
L 658.445848 53.448063 
L 661.107316 52.18639 
L 664.434152 50.908615 
L 668.426355 49.627714 
L 671.087823 48.973445 
L 673.749291 48.522633 
L 677.076127 48.206574 
L 681.733696 48.035024 
L 691.048836 47.969175 
L 717.66352 47.872467 
L 754.25871 47.861655 
L 759.581647 47.971805 
L 760.247014 48.118991 
L 760.912381 48.392944 
L 761.577748 48.841441 
L 762.243115 49.504828 
L 762.908482 50.410348 
L 763.57385 51.569185 
L 764.904584 54.608195 
L 766.235318 58.402935 
L 769.562153 68.623623 
L 770.892888 71.962881 
L 772.223622 74.420666 
L 772.888989 75.260112 
L 773.554356 75.819419 
L 774.219723 76.089381 
L 774.88509 76.065425 
L 775.550457 75.747333 
L 776.215824 75.139092 
L 776.881191 74.2491 
L 777.546559 73.090098 
L 778.877293 70.040359 
L 780.208027 66.193055 
L 784.865597 51.466961 
L 785.530964 49.970205 
L 786.196331 48.815728 
L 786.861698 48.061073 
L 787.527065 47.731023 
L 788.192432 47.969045 
L 788.857799 48.721617 
L 789.523166 50.034313 
L 790.188533 51.927744 
L 790.853901 54.411614 
L 791.519268 57.495247 
L 792.184635 61.206963 
L 792.850002 65.645514 
L 793.515369 71.130291 
L 794.180736 78.67777 
L 794.846103 91.54866 
L 795.51147 119.360013 
L 796.176837 177.616837 
L 796.842204 246.036494 
L 797.507572 278.086247 
L 798.172939 285.370662 
L 798.838306 286.491651 
L 799.503673 286.630707 
L 804.82661 286.683046 
L 827.449091 286.712659 
L 827.449091 286.712659 
" clip-path="url(#p228a332db0)" style="fill: none; stroke: #008000; stroke-width: 2; stroke-linecap: round"/>
   </g>
   <g id="line2d_39">
    <path d="M 787.606909 298.66575 
L 787.606909 35.78175 
" clip-path="url(#p228a332db0)" style="fill: none; stroke-dasharray: 3.7,1.6; stroke-dashoffset: 0; stroke: #ff0000; stroke-opacity: 0.7"/>
   </g>
   <g id="patch_9">
    <path d="M 478.83 298.66575 
L 478.83 35.78175 
" style="fill: none; stroke: #ffffff; stroke-width: 1.25; stroke-linejoin: miter; stroke-linecap: square"/>
   </g>
   <g id="patch_10">
    <path d="M 844.05 298.66575 
L 844.05 35.78175 
" style="fill: none; stroke: #ffffff; stroke-width: 1.25; stroke-linejoin: miter; stroke-linecap: square"/>
   </g>
   <g id="patch_11">
    <path d="M 478.83 298.66575 
L 844.05 298.66575 
" style="fill: none; stroke: #ffffff; stroke-width: 1.25; stroke-linejoin: miter; stroke-linecap: square"/>
   </g>
   <g id="patch_12">
    <path d="M 478.83 35.78175 
L 844.05 35.78175 
" style="fill: none; stroke: #ffffff; stroke-width: 1.25; stroke-linejoin: miter; stroke-linecap: square"/>
   </g>
   <g id="text_37">
    <!-- Stiffness ($G_P$) using uncertainty split -->
    <g style="fill: #262626" transform="translate(552.66 16.32) scale(0.12 -0.12)">
     <use xlink:href="#DejaVuSans-53" transform="translate(0 0.015625)"/>
     <use xlink:href="#DejaVuSans-74" transform="translate(63.476562 0.015625)"/>
     <use xlink:href="#DejaVuSans-69" transform="translate(102.685547 0.015625)"/>
     <use xlink:href="#DejaVuSans-66" transform="translate(130.46875 0.015625)"/>
     <use xlink:href="#DejaVuSans-66" transform="translate(165.673828 0.015625)"/>
     <use xlink:href="#DejaVuSans-6e" transform="translate(200.878906 0.015625)"/>
     <use xlink:href="#DejaVuSans-65" transform="translate(264.257812 0.015625)"/>
     <use xlink:href="#DejaVuSans-73" transform="translate(325.78125 0.015625)"/>
     <use xlink:href="#DejaVuSans-73" transform="translate(377.880859 0.015625)"/>
     <use xlink:href="#DejaVuSans-20" transform="translate(429.980469 0.015625)"/>
     <use xlink:href="#DejaVuSans-28" transform="translate(461.767578 0.015625)"/>
     <use xlink:href="#DejaVuSans-Oblique-47" transform="translate(500.78125 0.015625)"/>
     <use xlink:href="#DejaVuSans-Oblique-50" transform="translate(578.271484 -16.390625) scale(0.7)"/>
     <use xlink:href="#DejaVuSans-29" transform="translate(623.217773 0.015625)"/>
     <use xlink:href="#DejaVuSans-20" transform="translate(662.231445 0.015625)"/>
     <use xlink:href="#DejaVuSans-75" transform="translate(694.018555 0.015625)"/>
     <use xlink:href="#DejaVuSans-73" transform="translate(757.397461 0.015625)"/>
     <use xlink:href="#DejaVuSans-69" transform="translate(809.49707 0.015625)"/>
     <use xlink:href="#DejaVuSans-6e" transform="translate(837.280273 0.015625)"/>
     <use xlink:href="#DejaVuSans-67" transform="translate(900.65918 0.015625)"/>
     <use xlink:href="#DejaVuSans-20" transform="translate(964.135742 0.015625)"/>
     <use xlink:href="#DejaVuSans-75" transform="translate(995.922852 0.015625)"/>
     <use xlink:href="#DejaVuSans-6e" transform="translate(1059.301758 0.015625)"/>
     <use xlink:href="#DejaVuSans-63" transform="translate(1122.680664 0.015625)"/>
     <use xlink:href="#DejaVuSans-65" transform="translate(1177.661133 0.015625)"/>
     <use xlink:href="#DejaVuSans-72" transform="translate(1239.18457 0.015625)"/>
     <use xlink:href="#DejaVuSans-74" transform="translate(1280.297852 0.015625)"/>
     <use xlink:href="#DejaVuSans-61" transform="translate(1319.506836 0.015625)"/>
     <use xlink:href="#DejaVuSans-69" transform="translate(1380.786133 0.015625)"/>
     <use xlink:href="#DejaVuSans-6e" transform="translate(1408.569336 0.015625)"/>
     <use xlink:href="#DejaVuSans-74" transform="translate(1471.948242 0.015625)"/>
     <use xlink:href="#DejaVuSans-79" transform="translate(1511.157227 0.015625)"/>
     <use xlink:href="#DejaVuSans-20" transform="translate(1570.336914 0.015625)"/>
     <use xlink:href="#DejaVuSans-73" transform="translate(1602.124023 0.015625)"/>
     <use xlink:href="#DejaVuSans-70" transform="translate(1654.223633 0.015625)"/>
     <use xlink:href="#DejaVuSans-6c" transform="translate(1717.700195 0.015625)"/>
     <use xlink:href="#DejaVuSans-69" transform="translate(1745.483398 0.015625)"/>
     <use xlink:href="#DejaVuSans-74" transform="translate(1773.266602 0.015625)"/>
    </g>
    <!-- (after via-point) -->
    <g style="fill: #262626" transform="translate(614.295 29.78175) scale(0.12 -0.12)">
     <use xlink:href="#DejaVuSans-28"/>
     <use xlink:href="#DejaVuSans-61" x="39.013672"/>
     <use xlink:href="#DejaVuSans-66" x="100.292969"/>
     <use xlink:href="#DejaVuSans-74" x="133.748047"/>
     <use xlink:href="#DejaVuSans-65" x="172.957031"/>
     <use xlink:href="#DejaVuSans-72" x="234.480469"/>
     <use xlink:href="#DejaVuSans-20" x="275.59375"/>
     <use xlink:href="#DejaVuSans-76" x="307.380859"/>
     <use xlink:href="#DejaVuSans-69" x="366.560547"/>
     <use xlink:href="#DejaVuSans-61" x="394.34375"/>
     <use xlink:href="#DejaVuSans-2d" x="455.623047"/>
     <use xlink:href="#DejaVuSans-70" x="491.707031"/>
     <use xlink:href="#DejaVuSans-6f" x="555.183594"/>
     <use xlink:href="#DejaVuSans-69" x="616.365234"/>
     <use xlink:href="#DejaVuSans-6e" x="644.148438"/>
     <use xlink:href="#DejaVuSans-74" x="707.527344"/>
     <use xlink:href="#DejaVuSans-29" x="746.736328"/>
    </g>
   </g>
   <g id="legend_2">
    <g id="patch_13">
     <path d="M 486.53 293.16575 
L 558.488906 293.16575 
Q 560.688906 293.16575 560.688906 290.96575 
L 560.688906 243.627937 
Q 560.688906 241.427937 558.488906 241.427937 
L 486.53 241.427937 
Q 484.33 241.427937 484.33 243.627937 
L 484.33 290.96575 
Q 484.33 293.16575 486.53 293.16575 
z
" style="fill: #eaeaf2; opacity: 0.8; stroke: #cccccc; stroke-linejoin: miter"/>
    </g>
    <g id="line2d_40">
     <path d="M 488.73 250.336219 
L 499.73 250.336219 
L 510.73 250.336219 
" style="fill: none; stroke: #0000ff; stroke-width: 2; stroke-linecap: round"/>
    </g>
    <g id="text_38">
     <!-- l = 0.1 -->
     <g style="fill: #262626" transform="translate(519.53 254.186219) scale(0.11 -0.11)">
      <use xlink:href="#DejaVuSans-6c"/>
      <use xlink:href="#DejaVuSans-20" x="27.783203"/>
      <use xlink:href="#DejaVuSans-3d" x="59.570312"/>
      <use xlink:href="#DejaVuSans-20" x="143.359375"/>
      <use xlink:href="#DejaVuSans-30" x="175.146484"/>
      <use xlink:href="#DejaVuSans-2e" x="238.769531"/>
      <use xlink:href="#DejaVuSans-31" x="270.556641"/>
     </g>
    </g>
    <g id="line2d_41">
     <path d="M 488.73 266.482156 
L 499.73 266.482156 
L 510.73 266.482156 
" style="fill: none; stroke: #ffa500; stroke-width: 2; stroke-linecap: round"/>
    </g>
    <g id="text_39">
     <!-- l = 0.2 -->
     <g style="fill: #262626" transform="translate(519.53 270.332156) scale(0.11 -0.11)">
      <use xlink:href="#DejaVuSans-6c"/>
      <use xlink:href="#DejaVuSans-20" x="27.783203"/>
      <use xlink:href="#DejaVuSans-3d" x="59.570312"/>
      <use xlink:href="#DejaVuSans-20" x="143.359375"/>
      <use xlink:href="#DejaVuSans-30" x="175.146484"/>
      <use xlink:href="#DejaVuSans-2e" x="238.769531"/>
      <use xlink:href="#DejaVuSans-32" x="270.556641"/>
     </g>
    </g>
    <g id="line2d_42">
     <path d="M 488.73 282.628094 
L 499.73 282.628094 
L 510.73 282.628094 
" style="fill: none; stroke: #008000; stroke-width: 2; stroke-linecap: round"/>
    </g>
    <g id="text_40">
     <!-- l = 0.3 -->
     <g style="fill: #262626" transform="translate(519.53 286.478094) scale(0.11 -0.11)">
      <use xlink:href="#DejaVuSans-6c"/>
      <use xlink:href="#DejaVuSans-20" x="27.783203"/>
      <use xlink:href="#DejaVuSans-3d" x="59.570312"/>
      <use xlink:href="#DejaVuSans-20" x="143.359375"/>
      <use xlink:href="#DejaVuSans-30" x="175.146484"/>
      <use xlink:href="#DejaVuSans-2e" x="238.769531"/>
      <use xlink:href="#DejaVuSans-33" x="270.556641"/>
     </g>
    </g>
   </g>
  </g>
 </g>
 <defs>
  <clipPath id="p47468e8c62">
   <rect x="53.31" y="35.78175" width="365.22" height="262.884"/>
  </clipPath>
  <clipPath id="p228a332db0">
   <rect x="478.83" y="35.78175" width="365.22" height="262.884"/>
  </clipPath>
 </defs>
</svg>
